<svg version="1.1" id="Layer_1" xmlns="http://www.w3.org/2000/svg" xmlns:xlink="http://www.w3.org/1999/xlink" x="0px" y="0px"
	 width="100%" viewBox="0 0 674 110" enable-background="new 0 0 674 110" xml:space="preserve">
<path fill="#FEFDFF" opacity="1.000000" stroke="none" 
	d="
M500.000000,111.000000 
	C333.333374,111.000000 167.166733,111.000000 1.000067,111.000000 
	C1.000045,74.333366 1.000045,37.666740 1.000022,1.000082 
	C225.666580,1.000054 450.333160,1.000054 674.999817,1.000027 
	C674.999878,37.666584 674.999878,74.333168 674.999939,110.999878 
	C616.833313,111.000000 558.666687,111.000000 500.000000,111.000000 
M573.754089,88.855621 
	C579.085754,93.094521 595.671143,94.404274 601.338806,90.745796 
	C602.629211,89.912857 603.787231,87.902092 603.817627,86.409233 
	C603.840515,85.290886 601.951111,84.137772 600.921753,82.992493 
	C599.947449,81.908577 598.013977,80.551193 598.223083,79.781441 
	C598.627563,78.292152 600.205383,76.052155 601.360962,76.012932 
	C607.976624,75.788353 614.619080,75.991081 621.231018,76.396767 
	C622.245850,76.459038 623.620605,78.198517 623.944885,79.400764 
	C624.172546,80.244736 622.978699,81.549461 622.278076,82.549149 
	C621.093445,84.239250 619.796753,85.850784 618.547241,87.495361 
	C620.550781,88.969200 622.494446,91.608963 624.568298,91.715591 
	C633.678528,92.184006 642.830444,92.062637 651.957764,91.810997 
	C653.964539,91.755661 656.178162,90.632011 657.863342,89.405235 
	C660.683960,87.351868 660.497192,83.313705 657.430725,82.629898 
	C652.620117,81.557152 651.481995,77.885963 649.720825,74.350487 
	C642.828003,60.513084 636.096802,46.586258 628.785889,32.971680 
	C626.744019,29.169254 623.340759,25.748405 619.819458,23.164455 
	C613.027283,18.180269 601.372681,21.789301 601.099731,32.715549 
	C600.958984,38.349312 598.982727,44.089180 597.024170,49.486568 
	C594.648438,56.033535 591.241821,62.198425 588.599915,68.658943 
	C585.626404,75.930565 581.983887,82.442070 573.822327,84.459961 
	C570.913452,82.117996 567.625793,80.115547 565.165710,77.371231 
	C557.387573,68.694290 549.796570,59.839130 542.456848,50.790405 
	C541.293518,49.356228 540.766724,45.754845 541.716431,44.541710 
	C545.959167,39.121983 550.008911,32.940590 558.190857,33.081142 
	C561.653870,33.140629 564.296997,31.933468 564.515259,28.251963 
	C564.733704,24.567831 561.968750,22.600080 558.804932,22.551046 
	C551.027893,22.430523 543.217896,22.588121 535.471191,23.233812 
	C532.209351,23.505688 530.318054,26.083239 531.045410,29.792830 
	C532.311340,36.249435 527.897034,43.551414 521.435120,45.755585 
	C519.091187,41.201172 519.765320,36.444958 523.371765,32.092434 
	C526.653259,28.132084 525.791382,24.030718 520.891785,23.009306 
	C511.849945,21.124363 502.672943,20.973206 493.772827,23.941381 
	C489.375183,25.408007 488.451111,29.468145 492.051544,32.357494 
	C495.761536,35.334797 496.784760,39.096767 496.852173,43.303188 
	C497.006927,52.958553 497.080505,62.622421 496.830048,72.273575 
	C496.728485,76.186127 496.110901,79.990929 492.525085,82.958435 
	C488.666901,86.151367 490.107635,91.233459 495.195129,91.534210 
	C504.255676,92.069839 513.396667,91.611603 522.477356,91.098335 
	C524.095154,91.006897 526.366699,88.885361 526.886963,87.242249 
	C527.308838,85.910141 525.537537,83.896530 524.769409,82.171623 
	C523.548401,79.429459 522.011841,76.759499 521.308472,73.887611 
	C521.013367,72.682785 522.171570,70.370087 523.292114,69.811958 
	C524.164978,69.377243 526.383728,70.528664 527.346252,71.578545 
	C532.180054,76.851318 536.712646,82.400024 541.541199,87.677864 
	C543.039490,89.315674 545.081055,91.466064 546.965881,91.561249 
	C554.089417,91.921028 561.257812,91.672699 568.392517,91.314514 
	C569.959900,91.235832 571.457642,89.771118 573.754089,88.855621 
M414.183228,91.732422 
	C417.162872,92.064682 420.183411,92.876923 423.113464,92.627281 
	C428.862946,92.137459 434.704865,91.575050 440.235718,90.051994 
	C444.469482,88.886116 445.654907,84.646645 442.640839,82.380676 
	C436.864807,78.038254 437.631927,72.196083 438.163177,66.493004 
	C438.310760,64.909088 440.869415,62.271053 442.253448,62.314194 
	C446.921539,62.459694 452.137299,59.680439 456.218567,64.135056 
	C456.512604,64.455986 456.607300,65.099609 456.561523,65.570526 
	C455.983154,71.523491 457.489014,77.925842 451.706055,82.599220 
	C448.526123,85.169075 449.281311,88.895584 453.068146,90.576683 
	C455.451965,91.634941 458.199158,92.467567 460.762543,92.413612 
	C467.540527,92.270973 474.357849,91.924461 481.045837,90.909805 
	C482.922302,90.625130 485.102173,87.986031 485.799316,85.963722 
	C486.198578,84.805542 483.799500,82.768196 482.832703,81.030716 
	C481.760864,79.104416 480.088837,77.081947 480.055695,75.078568 
	C479.860168,63.253975 479.900299,51.417290 480.290527,39.598854 
	C480.359741,37.503254 482.435333,35.466759 483.608734,33.416889 
	C484.693237,31.522417 487.026093,29.300634 486.612701,27.848082 
	C486.066528,25.928898 483.456635,23.375357 481.599854,23.260519 
	C473.191681,22.740494 464.732941,22.850935 456.300903,23.067102 
	C454.688232,23.108444 452.814606,24.347536 451.589752,25.565409 
	C449.583435,27.560366 449.054016,30.362881 451.743622,32.011818 
	C456.610199,34.995419 456.370697,39.662350 456.733185,44.294823 
	C457.016846,47.920055 455.263794,49.831871 451.835022,49.526165 
	C447.242371,49.116692 440.917725,52.563152 438.612854,46.481289 
	C436.896942,41.953541 436.876740,36.393639 442.245117,32.615158 
	C446.606842,29.545149 445.757141,24.835058 440.666260,23.219227 
	C437.392822,22.180250 433.746613,21.461746 430.374695,21.770567 
	C423.988525,22.355448 417.490692,23.171524 411.398285,25.053757 
	C406.543274,26.553705 406.740845,30.288450 410.585358,33.638035 
	C412.362793,35.186657 414.191895,37.838474 414.233246,40.023537 
	C414.456818,51.831600 414.334839,63.659573 413.796967,75.456299 
	C413.700836,77.564972 411.419312,79.935135 409.577454,81.524879 
	C406.160431,84.474136 405.982452,87.526268 409.741913,89.927055 
	C410.841461,90.629234 412.177460,90.961143 414.183228,91.732422 
M234.463257,91.259941 
	C236.209213,90.718620 238.048981,90.375656 239.685059,89.601959 
	C247.150787,86.071472 251.843643,80.391510 252.444687,71.941322 
	C252.996140,64.188400 248.992783,58.938698 242.431839,55.551849 
	C238.631836,53.590225 239.793228,51.994331 241.968994,49.587173 
	C250.506104,40.142193 247.367477,27.501741 235.150711,24.008358 
	C229.544098,22.405138 223.345642,22.652887 217.403992,22.493629 
	C209.424728,22.279755 201.434128,22.466461 193.448654,22.520655 
	C191.124207,22.536428 188.621262,22.181801 186.529617,22.924669 
	C184.624130,23.601423 182.615753,25.267838 181.753143,27.035147 
	C181.351639,27.857769 183.620682,29.912615 184.563263,31.478674 
	C186.093460,34.021023 188.767075,36.609856 188.789886,39.198162 
	C188.890991,50.672600 188.511169,62.175911 187.644623,73.618744 
	C187.395050,76.914330 184.922989,80.035927 183.500076,83.250656 
	C182.757278,84.928856 181.111038,87.041039 181.608658,88.231819 
	C182.292374,89.867950 184.470795,91.496506 186.282059,91.899277 
	C188.974884,92.498070 191.906891,92.033081 194.736908,92.001038 
	C207.710251,91.854141 220.683517,91.700371 234.463257,91.259941 
M38.799816,22.830238 
	C34.982254,22.823303 31.105764,22.425041 27.373867,22.986996 
	C25.697783,23.239384 23.573542,25.171627 23.044300,26.795238 
	C22.673304,27.933378 24.638250,29.851122 25.594370,31.399477 
	C27.067392,33.784920 29.841057,36.149235 29.846546,38.527626 
	C29.874958,50.832207 29.352036,63.147335 28.637228,75.436447 
	C28.496038,77.863808 26.697098,80.205307 25.614172,82.564133 
	C24.682018,84.594559 22.395699,87.783531 22.950842,88.382866 
	C24.618996,90.183777 27.355848,91.922661 29.724546,91.990845 
	C41.866047,92.340302 54.036549,92.497086 66.168175,92.008095 
	C71.682610,91.785828 77.521889,90.798264 82.514244,88.581993 
	C89.450462,85.502769 93.358604,79.296097 93.710884,71.510590 
	C94.027802,64.506310 90.576500,59.207390 84.497589,56.141304 
	C79.843849,53.794060 80.785858,52.098801 83.669731,48.924759 
	C91.194778,40.642590 88.367630,28.198502 77.859497,24.520874 
	C72.973854,22.810997 67.454964,22.506691 62.200027,22.352541 
	C54.724537,22.133253 47.227772,22.639217 38.799816,22.830238 
M277.162567,89.521423 
	C286.730743,93.436890 296.621796,93.708824 306.600830,91.797554 
	C322.428009,88.766197 329.678711,79.985580 329.941345,63.747070 
	C330.075989,55.422562 329.743652,47.076138 330.272034,38.780998 
	C330.433136,36.251778 332.714722,33.835251 334.108154,31.414867 
	C335.023468,29.824902 337.167023,27.999922 336.826813,26.854485 
	C336.340851,25.218140 334.147736,23.047380 332.575012,22.955011 
	C325.671234,22.549540 318.712280,22.563801 311.811798,23.014755 
	C310.231506,23.118029 308.048187,25.341597 307.576050,26.997988 
	C307.269897,28.072086 309.269989,30.380920 310.755402,31.267443 
	C313.790955,33.079117 315.285828,35.324741 315.308075,38.899624 
	C315.357727,46.886181 315.925049,54.879562 315.692841,62.853024 
	C315.596039,66.177650 314.670166,69.874641 312.937134,72.667519 
	C309.902649,77.557816 302.548859,79.306419 296.314453,77.537903 
	C290.444458,75.872765 286.378448,71.111595 286.180603,64.201309 
	C285.938049,55.728607 286.226868,47.218689 286.804749,38.760307 
	C286.945374,36.702778 289.098907,34.773727 290.356140,32.804310 
	C291.437378,31.110624 293.718231,29.149569 293.384674,27.835936 
	C292.921875,26.013393 290.572937,23.436476 288.921692,23.352922 
	C279.513855,22.876888 270.065277,22.831255 260.651245,23.187069 
	C258.887177,23.253744 256.387604,25.515923 255.769501,27.299374 
	C255.287415,28.690353 257.226135,30.898344 258.038910,32.765106 
	C259.364868,35.810532 261.582672,38.817932 261.769562,41.940407 
	C262.245880,49.899078 261.880249,57.913956 261.717712,65.903625 
	C261.492706,76.963455 266.570862,84.588326 277.162567,89.521423 
M380.852936,46.723297 
	C378.512726,45.869907 376.131958,45.111954 373.842621,44.138874 
	C371.005463,42.932961 368.448700,40.670845 370.075958,37.709648 
	C371.103882,35.839134 374.503052,34.175430 376.713013,34.321346 
	C379.640289,34.514633 382.622864,36.278320 385.251007,37.902233 
	C387.767517,39.457161 389.792450,41.785160 392.156097,43.614964 
	C395.991364,46.584034 400.746033,44.937546 401.906921,40.335945 
	C403.959900,32.198132 395.768433,22.894028 387.546570,23.887606 
	C386.134186,24.058285 384.599396,23.613207 383.177216,23.239355 
	C375.661224,21.263605 368.171204,20.515860 360.570221,22.915462 
	C348.993988,26.570042 341.573242,36.307312 343.066223,47.039154 
	C344.387909,56.539665 351.039429,62.075844 359.222107,65.860237 
	C363.584045,67.877586 368.338959,69.059601 372.650635,71.163559 
	C374.218842,71.928787 376.059143,74.405869 375.877350,75.865570 
	C375.686035,77.401962 373.441467,79.402702 371.717590,79.902733 
	C364.503601,81.995308 357.027557,78.772392 352.664307,72.357201 
	C351.181091,70.176460 349.680237,67.869423 347.698669,66.200371 
	C345.129974,64.036736 342.547577,64.884460 341.258179,67.926155 
	C338.996826,73.260651 343.729156,86.560066 348.951752,88.656517 
	C362.239716,93.990570 375.793335,95.058296 389.213623,89.169884 
	C398.813354,84.957809 403.699036,76.926888 403.197937,67.105637 
	C402.676178,56.880753 395.841431,52.071812 387.278168,48.826416 
	C385.416870,48.121014 383.500519,47.560959 380.852936,46.723297 
M136.572479,21.586964 
	C127.086609,19.896284 122.478745,23.554483 121.257385,32.869843 
	C120.553558,38.237980 119.373878,43.691494 117.404953,48.713146 
	C114.013054,57.364063 110.201630,65.902412 105.822388,74.090141 
	C103.923798,77.639862 100.103737,80.134659 97.306641,83.243744 
	C96.105034,84.579391 94.331673,86.413612 94.546989,87.740829 
	C94.786987,89.220200 96.825882,91.207520 98.375496,91.520813 
	C102.586830,92.372238 106.962349,92.829147 111.255501,92.725647 
	C114.665611,92.643433 118.143723,91.781067 121.396591,90.685783 
	C122.571922,90.290024 123.841484,88.216995 123.855789,86.896217 
	C123.869331,85.645897 122.345985,84.338074 121.404045,83.129196 
	C120.359718,81.788887 119.208275,80.532051 118.103477,79.238876 
	C119.679222,78.014114 121.206734,75.820549 122.839409,75.739265 
	C128.627289,75.451103 134.468094,75.687607 140.248795,76.187981 
	C141.622345,76.306877 143.358841,78.014572 143.919373,79.399765 
	C144.216919,80.135071 142.353378,81.748550 141.459564,82.961334 
	C140.473175,84.299728 138.498901,85.832703 138.720352,86.922043 
	C139.051300,88.550018 140.718262,90.847878 142.176620,91.155510 
	C153.359467,93.514519 164.612305,93.693001 175.748367,90.716080 
	C176.928131,90.400703 178.186874,89.410629 178.861816,88.376465 
	C180.322433,86.138390 180.364883,83.260666 177.508408,82.649673 
	C172.707626,81.622810 171.547577,77.953712 169.776535,74.409019 
	C162.724365,60.294312 155.936371,46.027046 148.258804,32.257755 
	C145.919571,28.062449 141.038101,25.284664 136.572479,21.586964 
z"/>
<path fill="#BA10C9" opacity="1.000000" stroke="none" 
	d="
M413.794159,91.597588 
	C412.177460,90.961143 410.841461,90.629234 409.741913,89.927055 
	C405.982452,87.526268 406.160431,84.474136 409.577454,81.524879 
	C411.419312,79.935135 413.700836,77.564972 413.796967,75.456299 
	C414.334839,63.659573 414.456818,51.831600 414.233246,40.023537 
	C414.191895,37.838474 412.362793,35.186657 410.585358,33.638035 
	C406.740845,30.288450 406.543274,26.553705 411.398285,25.053757 
	C417.490692,23.171524 423.988525,22.355448 430.374695,21.770567 
	C433.746613,21.461746 437.392822,22.180250 440.666260,23.219227 
	C445.757141,24.835058 446.606842,29.545149 442.245117,32.615158 
	C436.876740,36.393639 436.896942,41.953541 438.612854,46.481289 
	C440.917725,52.563152 447.242371,49.116692 451.835022,49.526165 
	C455.263794,49.831871 457.016846,47.920055 456.733185,44.294823 
	C456.370697,39.662350 456.610199,34.995419 451.743622,32.011818 
	C449.054016,30.362881 449.583435,27.560366 451.589752,25.565409 
	C452.814606,24.347536 454.688232,23.108444 456.300903,23.067102 
	C464.732941,22.850935 473.191681,22.740494 481.599854,23.260519 
	C483.456635,23.375357 486.066528,25.928898 486.612701,27.848082 
	C487.026093,29.300634 484.693237,31.522417 483.608734,33.416889 
	C482.435333,35.466759 480.359741,37.503254 480.290527,39.598854 
	C479.900299,51.417290 479.860168,63.253975 480.055695,75.078568 
	C480.088837,77.081947 481.760864,79.104416 482.832703,81.030716 
	C483.799500,82.768196 486.198578,84.805542 485.799316,85.963722 
	C485.102173,87.986031 482.922302,90.625130 481.045837,90.909805 
	C474.357849,91.924461 467.540527,92.270973 460.762543,92.413612 
	C458.199158,92.467567 455.451965,91.634941 453.068146,90.576683 
	C449.281311,88.895584 448.526123,85.169075 451.706055,82.599220 
	C457.489014,77.925842 455.983154,71.523491 456.561523,65.570526 
	C456.607300,65.099609 456.512604,64.455986 456.218567,64.135056 
	C452.137299,59.680439 446.921539,62.459694 442.253448,62.314194 
	C440.869415,62.271053 438.310760,64.909088 438.163177,66.493004 
	C437.631927,72.196083 436.864807,78.038254 442.640839,82.380676 
	C445.654907,84.646645 444.469482,88.886116 440.235718,90.051994 
	C434.704865,91.575050 428.862946,92.137459 423.113464,92.627281 
	C420.183411,92.876923 417.162872,92.064682 413.794159,91.597588 
z"/>
<path fill="#C412C1" opacity="1.000000" stroke="none" 
	d="
M572.987427,88.944672 
	C571.457642,89.771118 569.959900,91.235832 568.392517,91.314514 
	C561.257812,91.672699 554.089417,91.921028 546.965881,91.561249 
	C545.081055,91.466064 543.039490,89.315674 541.541199,87.677864 
	C536.712646,82.400024 532.180054,76.851318 527.346252,71.578545 
	C526.383728,70.528664 524.164978,69.377243 523.292114,69.811958 
	C522.171570,70.370087 521.013367,72.682785 521.308472,73.887611 
	C522.011841,76.759499 523.548401,79.429459 524.769409,82.171623 
	C525.537537,83.896530 527.308838,85.910141 526.886963,87.242249 
	C526.366699,88.885361 524.095154,91.006897 522.477356,91.098335 
	C513.396667,91.611603 504.255676,92.069839 495.195129,91.534210 
	C490.107635,91.233459 488.666901,86.151367 492.525085,82.958435 
	C496.110901,79.990929 496.728485,76.186127 496.830048,72.273575 
	C497.080505,62.622421 497.006927,52.958553 496.852173,43.303188 
	C496.784760,39.096767 495.761536,35.334797 492.051544,32.357494 
	C488.451111,29.468145 489.375183,25.408007 493.772827,23.941381 
	C502.672943,20.973206 511.849945,21.124363 520.891785,23.009306 
	C525.791382,24.030718 526.653259,28.132084 523.371765,32.092434 
	C519.765320,36.444958 519.091187,41.201172 521.435120,45.755585 
	C527.897034,43.551414 532.311340,36.249435 531.045410,29.792830 
	C530.318054,26.083239 532.209351,23.505688 535.471191,23.233812 
	C543.217896,22.588121 551.027893,22.430523 558.804932,22.551046 
	C561.968750,22.600080 564.733704,24.567831 564.515259,28.251963 
	C564.296997,31.933468 561.653870,33.140629 558.190857,33.081142 
	C550.008911,32.940590 545.959167,39.121983 541.716431,44.541710 
	C540.766724,45.754845 541.293518,49.356228 542.456848,50.790405 
	C549.796570,59.839130 557.387573,68.694290 565.165710,77.371231 
	C567.625793,80.115547 570.913452,82.117996 573.865051,85.133636 
	C573.601013,86.853096 573.294250,87.898880 572.987427,88.944672 
z"/>
<path fill="#9F0BE3" opacity="1.000000" stroke="none" 
	d="
M234.060028,91.404495 
	C220.683517,91.700371 207.710251,91.854141 194.736908,92.001038 
	C191.906891,92.033081 188.974884,92.498070 186.282059,91.899277 
	C184.470795,91.496506 182.292374,89.867950 181.608658,88.231819 
	C181.111038,87.041039 182.757278,84.928856 183.500076,83.250656 
	C184.922989,80.035927 187.395050,76.914330 187.644623,73.618744 
	C188.511169,62.175911 188.890991,50.672600 188.789886,39.198162 
	C188.767075,36.609856 186.093460,34.021023 184.563263,31.478674 
	C183.620682,29.912615 181.351639,27.857769 181.753143,27.035147 
	C182.615753,25.267838 184.624130,23.601423 186.529617,22.924669 
	C188.621262,22.181801 191.124207,22.536428 193.448654,22.520655 
	C201.434128,22.466461 209.424728,22.279755 217.403992,22.493629 
	C223.345642,22.652887 229.544098,22.405138 235.150711,24.008358 
	C247.367477,27.501741 250.506104,40.142193 241.968994,49.587173 
	C239.793228,51.994331 238.631836,53.590225 242.431839,55.551849 
	C248.992783,58.938698 252.996140,64.188400 252.444687,71.941322 
	C251.843643,80.391510 247.150787,86.071472 239.685059,89.601959 
	C238.048981,90.375656 236.209213,90.718620 234.060028,91.404495 
M212.792328,74.224602 
	C212.994202,77.366829 212.746857,81.411926 216.946365,81.422173 
	C219.374725,81.428101 222.932388,79.504501 224.005905,77.427872 
	C226.204544,73.174736 225.892960,68.069664 222.487488,64.427361 
	C220.902145,62.731739 217.563171,62.273643 214.984512,62.176960 
	C214.295654,62.151131 213.175858,65.463242 212.806488,67.351036 
	C212.431839,69.265709 212.740631,71.314110 212.792328,74.224602 
M222.718719,43.233433 
	C222.200928,40.655704 222.329697,37.637741 220.966476,35.635651 
	C219.818237,33.949284 216.935944,33.443619 214.821213,32.415306 
	C214.119370,34.108101 212.992157,35.756279 212.808899,37.503468 
	C212.480377,40.635296 212.497986,43.849033 212.814117,46.983849 
	C212.974777,48.577061 214.246796,51.431297 214.763977,51.375504 
	C216.894882,51.145592 219.300186,50.446903 220.875809,49.080288 
	C222.038025,48.072205 222.070923,45.762127 222.718719,43.233433 
z"/>
<path fill="#8C07F4" opacity="1.000000" stroke="none" 
	d="
M39.269955,22.832787 
	C47.227772,22.639217 54.724537,22.133253 62.200027,22.352541 
	C67.454964,22.506691 72.973854,22.810997 77.859497,24.520874 
	C88.367630,28.198502 91.194778,40.642590 83.669731,48.924759 
	C80.785858,52.098801 79.843849,53.794060 84.497589,56.141304 
	C90.576500,59.207390 94.027802,64.506310 93.710884,71.510590 
	C93.358604,79.296097 89.450462,85.502769 82.514244,88.581993 
	C77.521889,90.798264 71.682610,91.785828 66.168175,92.008095 
	C54.036549,92.497086 41.866047,92.340302 29.724546,91.990845 
	C27.355848,91.922661 24.618996,90.183777 22.950842,88.382866 
	C22.395699,87.783531 24.682018,84.594559 25.614172,82.564133 
	C26.697098,80.205307 28.496038,77.863808 28.637228,75.436447 
	C29.352036,63.147335 29.874958,50.832207 29.846546,38.527626 
	C29.841057,36.149235 27.067392,33.784920 25.594370,31.399477 
	C24.638250,29.851122 22.673304,27.933378 23.044300,26.795238 
	C23.573542,25.171627 25.697783,23.239384 27.373867,22.986996 
	C31.105764,22.425041 34.982254,22.823303 39.269955,22.832787 
M57.832485,81.629326 
	C62.071274,81.894363 64.938072,80.063210 65.916153,75.895996 
	C67.161224,70.591209 65.506355,64.484528 62.026138,62.887661 
	C60.110569,62.008717 57.471844,61.870361 55.450916,62.437595 
	C54.550266,62.690388 54.046307,65.483978 53.932087,67.163147 
	C53.729671,70.138924 53.605354,73.210136 54.140953,76.113655 
	C54.486347,77.986076 56.066856,79.630653 57.832485,81.629326 
M54.376694,50.523609 
	C56.349236,50.635448 59.581123,51.517498 60.068321,50.720905 
	C61.832676,47.836079 63.649467,44.363773 63.570824,41.159199 
	C63.502815,38.387852 61.493877,34.911442 59.245903,33.134487 
	C56.356441,30.850458 54.008141,32.508293 53.914925,36.363930 
	C53.807350,40.813232 54.013355,45.270115 54.376694,50.523609 
z"/>
<path fill="#A80DDA" opacity="1.000000" stroke="none" 
	d="
M276.816864,89.359100 
	C266.570862,84.588326 261.492706,76.963455 261.717712,65.903625 
	C261.880249,57.913956 262.245880,49.899078 261.769562,41.940407 
	C261.582672,38.817932 259.364868,35.810532 258.038910,32.765106 
	C257.226135,30.898344 255.287415,28.690353 255.769501,27.299374 
	C256.387604,25.515923 258.887177,23.253744 260.651245,23.187069 
	C270.065277,22.831255 279.513855,22.876888 288.921692,23.352922 
	C290.572937,23.436476 292.921875,26.013393 293.384674,27.835936 
	C293.718231,29.149569 291.437378,31.110624 290.356140,32.804310 
	C289.098907,34.773727 286.945374,36.702778 286.804749,38.760307 
	C286.226868,47.218689 285.938049,55.728607 286.180603,64.201309 
	C286.378448,71.111595 290.444458,75.872765 296.314453,77.537903 
	C302.548859,79.306419 309.902649,77.557816 312.937134,72.667519 
	C314.670166,69.874641 315.596039,66.177650 315.692841,62.853024 
	C315.925049,54.879562 315.357727,46.886181 315.308075,38.899624 
	C315.285828,35.324741 313.790955,33.079117 310.755402,31.267443 
	C309.269989,30.380920 307.269897,28.072086 307.576050,26.997988 
	C308.048187,25.341597 310.231506,23.118029 311.811798,23.014755 
	C318.712280,22.563801 325.671234,22.549540 332.575012,22.955011 
	C334.147736,23.047380 336.340851,25.218140 336.826813,26.854485 
	C337.167023,27.999922 335.023468,29.824902 334.108154,31.414867 
	C332.714722,33.835251 330.433136,36.251778 330.272034,38.780998 
	C329.743652,47.076138 330.075989,55.422562 329.941345,63.747070 
	C329.678711,79.985580 322.428009,88.766197 306.600830,91.797554 
	C296.621796,93.708824 286.730743,93.436890 276.816864,89.359100 
z"/>
<path fill="#B10ED2" opacity="1.000000" stroke="none" 
	d="
M381.231232,46.828632 
	C383.500519,47.560959 385.416870,48.121014 387.278168,48.826416 
	C395.841431,52.071812 402.676178,56.880753 403.197937,67.105637 
	C403.699036,76.926888 398.813354,84.957809 389.213623,89.169884 
	C375.793335,95.058296 362.239716,93.990570 348.951752,88.656517 
	C343.729156,86.560066 338.996826,73.260651 341.258179,67.926155 
	C342.547577,64.884460 345.129974,64.036736 347.698669,66.200371 
	C349.680237,67.869423 351.181091,70.176460 352.664307,72.357201 
	C357.027557,78.772392 364.503601,81.995308 371.717590,79.902733 
	C373.441467,79.402702 375.686035,77.401962 375.877350,75.865570 
	C376.059143,74.405869 374.218842,71.928787 372.650635,71.163559 
	C368.338959,69.059601 363.584045,67.877586 359.222107,65.860237 
	C351.039429,62.075844 344.387909,56.539665 343.066223,47.039154 
	C341.573242,36.307312 348.993988,26.570042 360.570221,22.915462 
	C368.171204,20.515860 375.661224,21.263605 383.177216,23.239355 
	C384.599396,23.613207 386.134186,24.058285 387.546570,23.887606 
	C395.768433,22.894028 403.959900,32.198132 401.906921,40.335945 
	C400.746033,44.937546 395.991364,46.584034 392.156097,43.614964 
	C389.792450,41.785160 387.767517,39.457161 385.251007,37.902233 
	C382.622864,36.278320 379.640289,34.514633 376.713013,34.321346 
	C374.503052,34.175430 371.103882,35.839134 370.075958,37.709648 
	C368.448700,40.670845 371.005463,42.932961 373.842621,44.138874 
	C376.131958,45.111954 378.512726,45.869907 381.231232,46.828632 
z"/>
<path fill="#9509EB" opacity="1.000000" stroke="none" 
	d="
M136.946716,21.722319 
	C141.038101,25.284664 145.919571,28.062449 148.258804,32.257755 
	C155.936371,46.027046 162.724365,60.294312 169.776535,74.409019 
	C171.547577,77.953712 172.707626,81.622810 177.508408,82.649673 
	C180.364883,83.260666 180.322433,86.138390 178.861816,88.376465 
	C178.186874,89.410629 176.928131,90.400703 175.748367,90.716080 
	C164.612305,93.693001 153.359467,93.514519 142.176620,91.155510 
	C140.718262,90.847878 139.051300,88.550018 138.720352,86.922043 
	C138.498901,85.832703 140.473175,84.299728 141.459564,82.961334 
	C142.353378,81.748550 144.216919,80.135071 143.919373,79.399765 
	C143.358841,78.014572 141.622345,76.306877 140.248795,76.187981 
	C134.468094,75.687607 128.627289,75.451103 122.839409,75.739265 
	C121.206734,75.820549 119.679222,78.014114 118.103470,79.238876 
	C119.208275,80.532051 120.359718,81.788887 121.404045,83.129196 
	C122.345985,84.338074 123.869331,85.645897 123.855789,86.896217 
	C123.841484,88.216995 122.571922,90.290024 121.396591,90.685783 
	C118.143723,91.781067 114.665611,92.643433 111.255501,92.725647 
	C106.962349,92.829147 102.586830,92.372238 98.375496,91.520813 
	C96.825882,91.207520 94.786987,89.220200 94.546989,87.740829 
	C94.331673,86.413612 96.105034,84.579391 97.306641,83.243744 
	C100.103737,80.134659 103.923798,77.639862 105.822388,74.090141 
	C110.201630,65.902412 114.013054,57.364063 117.404953,48.713146 
	C119.373878,43.691494 120.553558,38.237980 121.257385,32.869843 
	C122.478745,23.554483 127.086609,19.896284 136.946716,21.722319 
M137.734924,62.906132 
	C138.075729,62.594398 138.763062,62.105564 138.707321,61.996479 
	C136.570145,57.814587 134.434265,53.626064 132.029800,49.598686 
	C131.848190,49.294483 128.948151,49.804722 128.577606,50.558571 
	C126.747269,54.282299 125.343262,58.215584 123.418228,62.995277 
	C128.717468,62.995277 132.797836,62.995277 137.734924,62.906132 
z"/>
<path fill="#CD14B8" opacity="1.000000" stroke="none" 
	d="
M573.370728,88.900146 
	C573.294250,87.898880 573.601013,86.853096 573.932495,85.479218 
	C581.983887,82.442070 585.626404,75.930565 588.599915,68.658943 
	C591.241821,62.198425 594.648438,56.033535 597.024170,49.486568 
	C598.982727,44.089180 600.958984,38.349312 601.099731,32.715549 
	C601.372681,21.789301 613.027283,18.180269 619.819458,23.164455 
	C623.340759,25.748405 626.744019,29.169254 628.785889,32.971680 
	C636.096802,46.586258 642.828003,60.513084 649.720825,74.350487 
	C651.481995,77.885963 652.620117,81.557152 657.430725,82.629898 
	C660.497192,83.313705 660.683960,87.351868 657.863342,89.405235 
	C656.178162,90.632011 653.964539,91.755661 651.957764,91.810997 
	C642.830444,92.062637 633.678528,92.184006 624.568298,91.715591 
	C622.494446,91.608963 620.550781,88.969200 618.547241,87.495346 
	C619.796753,85.850784 621.093445,84.239250 622.278076,82.549149 
	C622.978699,81.549461 624.172546,80.244736 623.944885,79.400764 
	C623.620605,78.198517 622.245850,76.459038 621.231018,76.396767 
	C614.619080,75.991081 607.976624,75.788353 601.360962,76.012932 
	C600.205383,76.052155 598.627563,78.292152 598.223083,79.781441 
	C598.013977,80.551193 599.947449,81.908577 600.921753,82.992493 
	C601.951111,84.137772 603.840515,85.290886 603.817627,86.409233 
	C603.787231,87.902092 602.629211,89.912857 601.338806,90.745796 
	C595.671143,94.404274 579.085754,93.094521 573.370728,88.900146 
M614.242371,52.240856 
	C612.709351,50.271362 611.136597,46.602215 608.546570,50.608948 
	C606.330200,54.037651 605.314697,58.242653 603.566040,62.608829 
	C609.320129,62.608829 613.967773,62.608829 619.650513,62.608829 
	C617.742615,58.876019 616.203308,55.864304 614.242371,52.240856 
z"/>
<path fill="#FDFAFE" opacity="1.000000" stroke="none" 
	d="
M212.771210,73.764267 
	C212.740631,71.314110 212.431839,69.265709 212.806488,67.351036 
	C213.175858,65.463242 214.295654,62.151131 214.984512,62.176960 
	C217.563171,62.273643 220.902145,62.731739 222.487488,64.427361 
	C225.892960,68.069664 226.204544,73.174736 224.005905,77.427872 
	C222.932388,79.504501 219.374725,81.428101 216.946365,81.422173 
	C212.746857,81.411926 212.994202,77.366829 212.771210,73.764267 
z"/>
<path fill="#FCF6FE" opacity="1.000000" stroke="none" 
	d="
M222.662857,43.632801 
	C222.070923,45.762127 222.038025,48.072205 220.875809,49.080288 
	C219.300186,50.446903 216.894882,51.145592 214.763977,51.375504 
	C214.246796,51.431297 212.974777,48.577061 212.814117,46.983849 
	C212.497986,43.849033 212.480377,40.635296 212.808899,37.503468 
	C212.992157,35.756279 214.119370,34.108101 214.821228,32.415306 
	C216.935944,33.443619 219.818237,33.949284 220.966476,35.635651 
	C222.329697,37.637741 222.200928,40.655704 222.662857,43.632801 
z"/>
<path fill="#FDFAFF" opacity="1.000000" stroke="none" 
	d="
M57.463154,81.503334 
	C56.066856,79.630653 54.486347,77.986076 54.140953,76.113655 
	C53.605354,73.210136 53.729671,70.138924 53.932087,67.163147 
	C54.046307,65.483978 54.550266,62.690388 55.450916,62.437595 
	C57.471844,61.870361 60.110569,62.008717 62.026138,62.887661 
	C65.506355,64.484528 67.161224,70.591209 65.916153,75.895996 
	C64.938072,80.063210 62.071274,81.894363 57.463154,81.503334 
z"/>
<path fill="#FBF5FF" opacity="1.000000" stroke="none" 
	d="
M54.229942,50.123657 
	C54.013355,45.270115 53.807350,40.813232 53.914925,36.363930 
	C54.008141,32.508293 56.356441,30.850458 59.245903,33.134487 
	C61.493877,34.911442 63.502815,38.387852 63.570824,41.159199 
	C63.649467,44.363773 61.832676,47.836079 60.068321,50.720905 
	C59.581123,51.517498 56.349236,50.635448 54.229942,50.123657 
z"/>
<path fill="#FCF7FE" opacity="1.000000" stroke="none" 
	d="
M137.306549,62.950706 
	C132.797836,62.995277 128.717468,62.995277 123.418228,62.995277 
	C125.343262,58.215584 126.747269,54.282299 128.577606,50.558571 
	C128.948151,49.804722 131.848190,49.294483 132.029800,49.598686 
	C134.434265,53.626064 136.570145,57.814587 138.707321,61.996479 
	C138.763062,62.105564 138.075729,62.594398 137.306549,62.950706 
z"/>
<path fill="#FDF8FD" opacity="1.000000" stroke="none" 
	d="
M614.453125,52.546722 
	C616.203308,55.864304 617.742615,58.876019 619.650513,62.608829 
	C613.967773,62.608829 609.320129,62.608829 603.566040,62.608829 
	C605.314697,58.242653 606.330200,54.037651 608.546570,50.608948 
	C611.136597,46.602215 612.709351,50.271362 614.453125,52.546722 
z"/>
</svg>