<svg xmlns="http://www.w3.org/2000/svg" id="Groupofpeopleprotesting" viewBox="119.05 107.8 2669.13 1452.27"><g data-name="Layer 1" fill="#ad59d4" class="color000000 svgShape"><path fill="#ffeccf" d="m1976.03 488.8.39 3.36 1.62 23.9 29.42 20.41 38.06-24.27-1.07-21.11-.29-2.84-68.13.55z" class="colorffd3cf svgShape"/><path fill="#ffdda9" d="m1976 488.8.39 3.36a38.47 38.47 0 0 0 68-1.07l-.29-2.84Z" class="colorffb2a9 svgShape"/><path fill="#ffeccf" d="M2014.17 508.53a38.5 38.5 0 0 0 34.15-42.41L2044.1 427l-76.55 8.26 4.22 39.16a38.49 38.49 0 0 0 42.4 34.11Z" class="colorffd3cf svgShape"/><path fill="#ffeccf" d="M2042.83 467.44c1.14 6.62 1.69 12 8.31 10.9s16.78-8.41 15.65-15a12.16 12.16 0 1 0-24 4.12ZM1978 473.27c0 6.72.29 12.16-6.42 12.12s-17.93-5.56-17.89-12.27a12.16 12.16 0 1 1 24.31.15Z" class="colorffd3cf svgShape"/><path fill="#464646" d="M2061.57 455.29s7.93-9.33 8.27-22.23a15.32 15.32 0 0 0-12.38-15.56l-.32-.05s6.46-23.63-17.45-37.77-42.92 14-42.92 14a9.37 9.37 0 0 0-10.42-3.5s-5.74 1-5.48 7.78c0 0-9.83-10.66-26.3 1.26-20.33 14.72 2.11 66.59 2.11 66.59s4.22-7.71 14.26-4l-2.72-19s19.29 9.48 28.77-7.79c0 0 10.52 15.28 24.71 10.51 15.22-5.12 14.2 12.35 25.51 10.3 0 .01 6.84-5.3 14.36-.54ZM1743.37 546.5s-26.15-13.75-41.85 24.63l37.67-1.76Z" class="color464646 svgShape"/><path fill="#ffe9c8" d="m1754.88 578.92-30.13-40.46-14.22-20.21-31.24-21.25a3.06 3.06 0 0 0-4.3.87 3.08 3.08 0 0 0 .44 3.86l18.55 18-3.17-1a13.07 13.07 0 0 0-9.78.77l-15.03 7.55a2.55 2.55 0 0 0-.88 3.84 2.53 2.53 0 0 0 2.72.89l10.54-3 8.25-2.38-7.19 1-6.82 8.17a2 2 0 0 0 .23 2.76 2 2 0 0 0 2.39.13l8.84-6.06 9.87-3.41 14.55 25.85 8.08 30.87Z" class="colorffcec8 svgShape"/><path fill="#ffe9c8" d="m1708.91 534.64-28.43-13.41a3.65 3.65 0 0 0-4.18.75 3.67 3.67 0 0 0 .38 5.45l19.35 15s2.53 8.3 12.43 12.39l7.38-9.18Z" class="colorffcec8 svgShape"/><path fill="#ffd391" d="M1708.91 535.27a.66.66 0 0 1-.27-.06l-28.43-13.41a3 3 0 0 0-4.31 2.94 3.06 3.06 0 0 0 1.17 2.19l6.83 5.29a.62.62 0 0 1 .11.88.63.63 0 0 1-.88.12l-6.83-5.29a4.29 4.29 0 0 1-.45-6.39 4.27 4.27 0 0 1 4.9-.89l28.43 13.42a.64.64 0 0 1 .3.84.62.62 0 0 1-.57.36ZM1695.17 527.25a.55.55 0 0 1-.28-.07.63.63 0 0 1-.29-.84c1.61-3.29-1-6-1.07-6.15a.63.63 0 0 1 .9-.88s3.31 3.48 1.3 7.58a.61.61 0 0 1-.56.36Z" class="colorff9c91 svgShape"/><path fill="#ffe9c8" d="m1675.79 526.42 7.72 6.3Z" class="colorffcec8 svgShape"/><path fill="#464646" d="M1701 566.3c.23-.32.45-.65.68-1a15.92 15.92 0 0 1 8.6-5.83c4.1-1 8.46.24 12.71.15a21.64 21.64 0 0 0 16-7.57 24.54 24.54 0 0 0 3.71-6.11l34.87 40.59 13.21 15.36 17 19.74 28.89-26.49c6.15-5.69 12.36-11.35 18.52-17 .21-.2.4-.34.61-.54 14.76-13.57 28.4-28.29 44.84-39.88 5.28-3.73 10.83-7.27 16.58-10.57l-1 101-89.39 75.26a63.16 63.16 0 0 1-15 7.62h-.14a27.59 27.59 0 0 1-26.51-4.18l-.25-.2a53.67 53.67 0 0 1-9.9-10.08l-77.48-124.16a32 32 0 0 1 3.45-6.11Z" class="color464646 svgShape"/><path fill="#ffe9c8" d="M1927.06 1518.85s12.28-1.73 19 12.67a26.1 26.1 0 0 0 20.35 15.38l6.51 1.19-.34-87.64-58-3.91Z" class="colorffcec8 svgShape"/><path fill="#5fe4d4" d="m1972.68 1492.05.22 56-6.51-1.19a26.1 26.1 0 0 1-20.35-15.38c-6.7-14.4-19-12.67-19-12.67l-5.38-26.8Z" class="colore3e3e3 svgShape"/><path fill="#ffe9c8" d="M2205.34 1518.91s8.52-1.79 14.79 12.61 19.06 15.38 19.06 15.38h18.52l-17.55-85.24-52.68.58Z" class="colorffcec8 svgShape"/><path fill="#5fe4d4" d="m2246.85 1494.16 10.86 52.74h-18.52s-12.11-1.29-19.06-15.38c-6.27-12.72-14.79-12.61-14.79-12.61l-8.21-24.75Z" class="colore3e3e3 svgShape"/><path fill="#464646" d="M1860.8 1538.64c1-.45 2-.83 2.91-1.14a30.85 30.85 0 0 1 5.54-1.42 214.05 214.05 0 0 0 34.28-7.06c.77-.27 1.55-.48 2.25-.76 3.06-1 5.75-1.93 8.15-2.87.78-.27 1.55-.58 2.22-.89 2.8-1.18 5-2.25 6.71-3.15.78-.45 1.48-.83 2-1.14a24.4 24.4 0 0 0 2.14-1.35s12.29-1.73 19 12.65a27.91 27.91 0 0 0 5.74 8.23c4.41 4.32 11.53 5.56 16.84 2.25a9.53 9.53 0 0 0 4.28-5.29V1560.07H1846.4c0-12.34 7.9-18.46 14.4-21.43Z" class="color464646 svgShape"/><path fill="#ffffff" d="M1912.37 1542a1.78 1.78 0 0 1-.56.11 1.28 1.28 0 0 1-1.07-.6l-7.19-12.46c.8-.26 1.55-.48 2.27-.74l7 12.16a1.12 1.12 0 0 1-.45 1.53ZM1922.85 1538.39a1 1 0 0 1-.55.14 1.25 1.25 0 0 1-1.07-.59l-7.23-12.54c.79-.3 1.55-.59 2.22-.89l7.15 12.39a1 1 0 0 1-.52 1.49ZM1932 1534.67a1.81 1.81 0 0 1-.6.11 1.17 1.17 0 0 1-1-.56l-7.43-12.87c.8-.45 1.47-.82 2-1.16l7.5 13a1.11 1.11 0 0 1-.47 1.48Z" class="colorffffff svgShape"/><path fill="#464646" d="M2126.79 1560h135l-1-3.74-.59-2.18-4.56-17.42c-1.28 4.42-8.68 6.4-14.83 7.29-7.2 1-14-2.7-17.9-8.82a30.71 30.71 0 0 1-2.24-4.26c-6.29-14.38-18.34-12.05-18.34-12.05a18.3 18.3 0 0 1-2 1.35l-1.9 1.14a70 70 0 0 1-6.26 3.15c-.66.31-1.35.62-2.11.89-2.21.94-4.73 1.91-7.6 2.87-.69.28-1.39.49-2.15.76a188.28 188.28 0 0 1-32.08 7.06 27.21 27.21 0 0 0-5.19 1.42c-.86.31-1.8.69-2.77 1.14-6.08 3.01-13.48 9.13-13.48 21.4Z" class="color464646 svgShape"/><path fill="#ffffff" d="M2188.59 1542a1.62 1.62 0 0 1-.52.11 1.19 1.19 0 0 1-1-.6l-6.73-12.46c.74-.26 1.45-.48 2.12-.74l6.58 12.16a1.15 1.15 0 0 1-.45 1.53ZM2198.41 1538.39a1 1 0 0 1-.52.14 1.19 1.19 0 0 1-1-.59l-6.81-12.54c.75-.3 1.46-.59 2.09-.89l6.69 12.39a1.07 1.07 0 0 1-.45 1.49ZM2206.93 1534.67a1.64 1.64 0 0 1-.56.11 1.1 1.1 0 0 1-1-.56l-7-12.87c.75-.45 1.38-.82 1.9-1.16l7 13a1.14 1.14 0 0 1-.34 1.48Z" class="colorffffff svgShape"/><path fill="#8526fe" d="m2143 820.17 116 686.65h-72.1L2033 989l-45.61 116.19a53.65 53.65 0 0 0-5.2 27l4 374.59h-78.07l-34.47-383.29a54 54 0 0 1 1.59-21.06l48.63-306 90.49-24 123.26 2.86Z" class="color545ed7 svgShape"/><path fill="#753bbf" d="m2030.33 986.45 4.03-.88-12.92-59.68-25.22-19.59-2.53 3.25 24.03 18.68 12.61 58.22z" class="color3b45bf svgShape"/><path fill="#464646" d="M1948.89 884.2h-76.36l18.18-338.92c26.46-20.61 36.52-25.27 76.31-32 2.11-.35 20.17 287.58 22.9 331.34h-.4a40.64 40.64 0 0 1-40.63 39.58Z" class="color464646 svgShape"/><path fill="#ffc267" d="M1986.52 795.85a21.3 21.3 0 0 1 .39 5.68v.05l3 43 84.71 2.82-10-152v-.69l-.1-1.6v-.72l-.08-1.25-.07-1.07-.06-.9V688.49l-.06-1v-.48l-.07-1.13v-.35l-.14-2.22v-.39l-11.47-175.18-3.87 2.18-42 23.61-28.62-19.93-.65-8.68-10.43 8.36 19.27 279.24Z" class="colorff7867 svgShape"/><path fill="#ffffff" d="M2022 836.7a.86.86 0 0 1-.83-.76c-.28-2.45-.34-4.78-.4-7 0-1.32-.07-2.7-.15-4.09-.2-4.31-.49-8.69-.78-12.93s-.57-8.64-.77-13c0-1.33-.07-2.66-.09-4a86.23 86.23 0 0 0-.75-11.81c-.43-3.21-1.94-5.8-3.55-8.55-.38-.64-.77-1.31-1.15-2a4.9 4.9 0 0 1-.66-4.14 15.22 15.22 0 0 1 1.76-3.44 13.16 13.16 0 0 0 1.57-3c.53-1.88-1.21-3-3.55-4.27a6.39 6.39 0 0 1-3.33-4 5.2 5.2 0 0 1 .85-4.23.87.87 0 0 1 .13-.15 2.62 2.62 0 0 0 .56-1.16 4.8 4.8 0 0 1 .38-1 .66.66 0 0 1 .12-.17 24.82 24.82 0 0 0 4.83-7c-2-42.65-4.28-85.91-6.49-127.74-1.37-25.76-2.78-52.4-4.11-78.64a.87.87 0 1 1 1.73-.09c1.33 26.24 2.74 52.88 4.11 78.64 2.22 41.89 4.51 85.22 6.5 128a.8.8 0 0 1-.06.37 25.93 25.93 0 0 1-5.15 7.57 4.49 4.49 0 0 0-.2.59 4.31 4.31 0 0 1-1 1.84 3.47 3.47 0 0 0-.56 2.78 4.74 4.74 0 0 0 2.48 2.86c2.13 1.16 5.35 2.9 4.38 6.3a15.22 15.22 0 0 1-1.76 3.44 14.24 14.24 0 0 0-1.57 3 3.13 3.13 0 0 0 .49 2.74c.37.66.76 1.33 1.13 2 1.63 2.77 3.31 5.64 3.78 9.17a88.43 88.43 0 0 1 .77 12c0 1.28 0 2.61.08 3.91.2 4.3.49 8.68.77 12.92s.58 8.63.78 13c.08 1.41.12 2.8.15 4.14.06 2.31.12 4.5.39 6.87a.86.86 0 0 1-.76 1Z" class="colorffffff svgShape"/><path fill="#ffffff" d="M1986.32 545.3a.86.86 0 0 1-.69-.38l-19.12-28.18a.87.87 0 0 1 .23-1.21.88.88 0 0 1 1.21.23l18.68 27.54 19.46-10.39a.9.9 0 0 1 .87 0l15.34 9.55 30.52-20.69a.87.87 0 1 1 1 1.43l-31 21a.85.85 0 0 1-.94 0l-15.4-9.58-19.7 10.52a1 1 0 0 1-.46.16ZM2003.77 560.72a3.86 3.86 0 1 1-3.73-4 3.86 3.86 0 0 1 3.73 4ZM2007.34 646.33a3.86 3.86 0 1 1-3.73-4 3.86 3.86 0 0 1 3.73 4ZM2011.05 727.66a3.86 3.86 0 1 1-3.73-4 3.86 3.86 0 0 1 3.73 4ZM2016.89 823.1a3.86 3.86 0 1 1-3.73-4 3.86 3.86 0 0 1 3.73 4Z" class="colorffffff svgShape"/><path fill="#d8a353" d="M1920.87 182.7h10.41v726.35h-10.41z" transform="rotate(-15.12 1926.121 545.884)" class="colorff9d5a svgShape"/><path fill="#464646" d="m2200.74 809-.76.55a44.16 44.16 0 0 1-23.71 8.28l9.06 66.34H2117a43.11 43.11 0 0 1-42.65-36.78l-22-339.67 54.83 10.31c15.38 2.89 29.45 9.82 42.67 18.18 55.06 34.79 67.22 237.11 67.22 237.11a40.78 40.78 0 0 1-16.33 35.68Z" class="color464646 svgShape"/><path fill="#ffe6c0" d="m2042.28 816.23-28.81 1.84-45 8.5a3.64 3.64 0 0 1-4-2.08 1 1 0 0 1-.13-.28 3.94 3.94 0 0 1 .45-3.19 3.67 3.67 0 0 1-5.18-1.74 3.63 3.63 0 0 1 2.57-4.55 3.94 3.94 0 0 1-3.33-2.7 1.23 1.23 0 0 1-.07-.32 3.46 3.46 0 0 1 2.12-3.92l19.4-8-16.59.13a2.85 2.85 0 0 1-2.81-2.25 2.93 2.93 0 0 1 2.64-3.54l24.15-2.5 9.1-3.89-3.79-12.85 15.89 5c4.65 1.46 7.53 3.75 9.41 8.26l7 .35 16.41-4.45Z" class="colorffc0c0 svgShape"/><path fill="#ffd699" d="M1962.18 815.28a.55.55 0 0 1-.51-.36.54.54 0 0 1 .32-.7l22.31-8.34a.55.55 0 0 1 .7.32.54.54 0 0 1-.32.7l-22.31 8.34a.65.65 0 0 1-.19.04ZM1964.77 821.54a.56.56 0 0 1-.51-.37.54.54 0 0 1 .34-.69l23.08-7.93a.54.54 0 0 1 .7.33.55.55 0 0 1-.34.7l-23.04 7.93Z" class="colorff9999 svgShape"/><path fill="#464646" d="m2123.74 757.47-7.83 67.32-84.32 8.57a21.28 21.28 0 0 1-1.09-10.9c1.85-12.48 8.42-25.2 3.59-37.85-1.88-4.94-5.9-9.27-11-10.53Z" class="color464646 svgShape"/><path fill="#464646" d="m2123.73 757.47-7.81 67.33-84.33 8.57a21.32 21.32 0 0 1-1.08-10.9c.17-1.21.42-2.46.66-3.68l3.23-33.28c-.11-.31-.21-.59-.31-.9-1.88-4.93-5.91-9.27-11-10.52Z" class="color464646 svgShape"/><path fill="#1f1f1f" d="M2125.67 599.71a.69.69 0 0 0-.77-.6.7.7 0 0 0-.6.78l20.36 153.42-75.54 12.47v1.41l76.43-12.62a.68.68 0 0 0 .57-.77ZM2180.12 817.5l-107.28 11v1.39l107.42-11a.69.69 0 0 0 .62-.77.7.7 0 0 0-.76-.62Z" class="color1f1f1f svgShape"/><path fill="#ffffff" d="M1709.73 600.09h-.2a.84.84 0 0 1-.61-1c0-.19 5.08-19.3 29.39-16.28 7.8 1 13.9-.32 18.13-3.85a17.22 17.22 0 0 0 5.84-11.13.84.84 0 0 1 .84-.79h.05a.85.85 0 0 1 .79.89 18.73 18.73 0 0 1-6.44 12.33c-4.61 3.83-11.14 5.24-19.42 4.22-22.78-2.83-27.5 14.85-27.55 15a.84.84 0 0 1-.82.61ZM1712.8 578.72a5.52 5.52 0 0 1-4.28-9 5.53 5.53 0 1 1 4.87 9 5.68 5.68 0 0 1-.59 0Zm0-9.36h-.41a3.84 3.84 0 0 0-3.41 4.22 3.76 3.76 0 0 0 1.4 2.58 3.86 3.86 0 0 0 2.82.84 3.84 3.84 0 0 0-.4-7.66ZM2041.73 827.08a5.53 5.53 0 1 1 5.52-5.53 5.54 5.54 0 0 1-5.52 5.53Zm0-9.37a3.84 3.84 0 1 0 3.83 3.84 3.84 3.84 0 0 0-3.83-3.84Z" class="colorffffff svgShape"/><path fill="#8526fe" d="M2023.11 774.08S2019.26 783 2020 789l14.53-3.1s-2.3-9.66-11.42-11.82Z" class="color545ed7 svgShape"/><path fill="#ffffff" d="M2053.56 831.81a.92.92 0 0 1-.84-.55c-3.2-7.27.05-20.77 2.27-28.17a44.1 44.1 0 0 0 1.71-17.17c-.94-8.89-4.12-13.45-6.62-15.71a.93.93 0 0 1-.06-1.3.91.91 0 0 1 1.29-.06c2.74 2.47 6.21 7.41 7.22 16.88a46.05 46.05 0 0 1-1.78 17.89c-1.73 5.76-5.42 19.92-2.35 26.9a.91.91 0 0 1-.46 1.21 1 1 0 0 1-.38.08Z" class="colorffffff svgShape"/><path fill="#a47630" d="m2045.09 502.52 7.26 5.23-6.87 4.05-.39-9.28z" class="color86a430 svgShape"/><path fill="#fff0d9" d="M1437.87 534.91c130.1-131.83 331 20.14 461.05-111.68-19-79.28-40.32-157-59.35-236.24-130.09 131.83-328.68-21.74-458.77 110.09q28.53 118.92 57.07 237.83Z" class="colorffe8d9 svgShape"/><path fill="#464646" d="M1126.23 1491.45s-15.87 8-55.25-6.79l6.82-21.86h34.51l13.41 10.74Z" class="color464646 svgShape"/><path fill="#5fe4d4" d="M1087.83 1491.39s-11-5.85-22.54 6.52-24.81 8.83-24.81 8.83l-6.61-1 20.2-57.61 44.21 11.4Z" class="colore3e3e3 svgShape"/><path fill="#464646" d="M1143.79 1533.56a28.48 28.48 0 0 0-2.39-2.17 29.36 29.36 0 0 0-4.74-3.26 200.84 200.84 0 0 1-30.05-18.6c-.66-.53-1.3-1-1.88-1.51-2.57-2-4.77-3.9-6.71-5.62-.66-.58-1.27-1.11-1.8-1.64-2.25-2.15-4-4-5.27-5.46l-1.51-1.83a22 22 0 0 1-1.57-2.09s-11-5.83-22.52 6.54a27.7 27.7 0 0 1-17 9.08s-10.86-4.12-10.38-12.78l-4.05 11.55-4.24 12.13 120.2 42.14c4.35-12.48-1-21.31-6.09-26.48Z" class="color464646 svgShape"/><path fill="#ffffff" d="m1031.73 1511.9-.78 2.22 91.79 32.19a1.12 1.12 0 0 0 1 0 1.22 1.22 0 0 0 .61-.76c.15-.55 3.53-13.47 18.47-11.58a1.15 1.15 0 0 0 1-.37c-.83-.79-1.62-1.54-2.39-2.15-12.87-.87-17.69 8.76-19 12.28ZM1093.58 1519.72a1.54 1.54 0 0 0 .49.3 1.25 1.25 0 0 0 1.23-.25l11.27-10.25c-.67-.52-1.31-1-1.89-1.51l-11 10a1.24 1.24 0 0 0-.1 1.71ZM1084.89 1512.6a1 1 0 0 0 .47.34 1.24 1.24 0 0 0 1.23-.25l11.41-10.29a44.28 44.28 0 0 1-1.8-1.65l-11.2 10.19a1.15 1.15 0 0 0-.11 1.66ZM1077.57 1505.8a1.63 1.63 0 0 0 .52.31 1.17 1.17 0 0 0 1.18-.22l11.64-10.59c-.6-.71-1.11-1.32-1.51-1.84l-11.74 10.63a1.23 1.23 0 0 0-.09 1.71Z" class="colorffffff svgShape"/><path fill="#464646" d="M1448.4 1505.41s-37.66 23.35-83-2.81c.04 0 65.09-31.5 83 2.81Z" class="color464646 svgShape"/><path fill="#5fe4d4" d="M1414.51 1513.67s-12.37-1.86-19.12 13.62-20.49 16.54-20.49 16.54l-6.56 1.27v-61l45.5-3.87Z" class="colore3e3e3 svgShape"/><path fill="#464646" d="M1481.25 1534.94c-1-.48-2-.9-2.94-1.22a27.81 27.81 0 0 0-5.56-1.54 202.64 202.64 0 0 1-34.53-7.58c-.79-.29-1.56-.53-2.28-.82-3.07-1-5.8-2.06-8.21-3.07-.8-.32-1.56-.64-2.23-1-2.83-1.28-5.08-2.44-6.75-3.4-.8-.47-1.49-.9-2-1.24a17.74 17.74 0 0 1-2.18-1.46s-12.37-1.85-19.1 13.62a27.74 27.74 0 0 1-13 14.22s-11.6-.29-14-8.63v25.08h127.41c-.13-13.18-8.11-19.75-14.63-22.96Z" class="color464646 svgShape"/><path fill="#ffffff" d="M1368.35 1551.59v2.41h97.27a1.12 1.12 0 0 0 .88-.36 1.19 1.19 0 0 0 .32-.92c0-.56-1.12-13.88 13.6-17a1.13 1.13 0 0 0 .84-.68c-1-.48-2-.92-3-1.24-12.44 3.44-13.8 14.12-13.88 17.88ZM1429.31 1538.51a1.57 1.57 0 0 0 .56.12 1.26 1.26 0 0 0 1.08-.64l7.24-13.4c-.8-.28-1.56-.52-2.28-.8l-7.08 13.08a1.24 1.24 0 0 0 .48 1.64ZM1418.75 1534.67a1 1 0 0 0 .56.16 1.26 1.26 0 0 0 1.08-.64l7.32-13.48c-.8-.32-1.56-.64-2.24-1l-7.2 13.32a1.16 1.16 0 0 0 .48 1.64ZM1409.59 1530.67a1.61 1.61 0 0 0 .6.12 1.16 1.16 0 0 0 1-.6l7.48-13.84c-.8-.48-1.48-.88-2-1.24l-7.56 13.92a1.23 1.23 0 0 0 .48 1.64Z" class="colorffffff svgShape"/><path fill="#8526fe" d="M1047 1465c10 9.34 24.61 14.63 38.26 13.34 6.41-.62 12.72-2.53 19.08-1.87 9 .94 17.07 7.25 21.87 15l122.32-339.37a162.15 162.15 0 0 0 11-58.92l.47-162.94 90.85 169.48a96.65 96.65 0 0 1 12.27 48.86l2.27 354a45.53 45.53 0 0 0 10.76 3.47 49.22 49.22 0 0 0 24.3-1.4 92 92 0 0 0 10.75-4.61 31.79 31.79 0 0 1 11-2.37 39.38 39.38 0 0 1 14 1.61c3.85 1.17 9 2.86 11.65 6.11h.53l15.62-373.46c1.91-14.53-.75-28.36-5.6-41.61l-114.57-320.56c-109.91-109.47-225.73 32-225.73 32l39.08 268.59a162.5 162.5 0 0 1-3.2 64.51Z" class="color545ed7 svgShape"/><path fill="#ffe9c8" d="M1198.33 498.92s15-5.3 10.75-35.81-6.9-43.8-6.9-43.8l-93 16.26 18.22 108.14 77.08-12.14Z" class="colorffcec8 svgShape"/><path fill="#d8a353" d="M1120.49 507.18s26.43-8.65 18.39-30.14c0 0-10.66 7.84-16.44 2.59a15.83 15.83 0 0 1-5-13.8 8.08 8.08 0 0 1 11.4-6.45 21.33 21.33 0 0 0 20.56-1c8.52-5.14 11.12-11.2 11.89-14.88a14.62 14.62 0 0 1 4.52-7.8c7-6.34 21.78-15.77 38.83-2.33 0 0 14.73-13.07 10.53-25s-15.3-3.86-19.86 1.33c0 0 4.44-15-3.38-15.77s-18.67 8.86-18.67 8.86-3.44-5.27-12.9-.35a26 26 0 0 0-9.69 8.83c-3.06 4.67-9 12.11-15.4 12-4.1-.07-7.32-2.25-10.94-3.84-4.7-2.07-8.47-.73-12.82 1.63-7 3.8-7.73 10.68-6.72 18.05Z" class="colorff9d5a svgShape"/><path fill="#ffdca8" d="M1198.33 498.92s-23.58 16.54-49.06-4.44c0 0 8.93 23.89 50.86 13.77Z" class="colorffb1a8 svgShape"/><path fill="#ffe9c8" d="M1133.05 534.28a38.54 38.54 0 0 0 72.77-13.54Z" class="colorffcec8 svgShape"/><path fill="#d9a04a" d="M1336 620.68a1.84 1.84 0 0 1-1.76-1.33L1316.45 556a1.82 1.82 0 0 1 3.51-1l17.76 63.37a1.81 1.81 0 0 1-1.26 2.24 1.66 1.66 0 0 1-.46.07Z" class="colord95b4a svgShape"/><path fill="#ffc267" d="m1297.8 813.51-98.09 25.85-77.98-303.14 4.78-2 52.62 8.49 22.6-26.02-1.6-7.18 10.53 10.7 87.14 293.3z" class="colorff7867 svgShape"/><path fill="#ffffff" d="M1261 813.61a.81.81 0 0 0 .49-.93c-.51-2.22-1.17-4.27-1.82-6.26-.38-1.16-.77-2.37-1.13-3.61-1.16-3.83-2.26-7.74-3.32-11.52s-2.17-7.72-3.33-11.55c-.37-1.18-.77-2.35-1.15-3.48a79.67 79.67 0 0 1-3-10.55c-.62-2.93-.1-5.66.46-8.55.13-.68.26-1.39.38-2.09a4.53 4.53 0 0 0-.7-3.82 13.84 13.84 0 0 0-2.6-2.45 12.79 12.79 0 0 1-2.3-2.16c-1-1.47.13-3 1.77-4.82a5.87 5.87 0 0 0 1.68-4.5 4.83 4.83 0 0 0-2-3.43l-.16-.09a2.34 2.34 0 0 1-.85-.84 5 5 0 0 0-.64-.75.91.91 0 0 0-.16-.11 23.13 23.13 0 0 1-6.37-4.59c-11.45-37.85-22.82-76.3-33.81-113.5-6.77-22.9-13.77-46.58-20.72-69.89a.8.8 0 1 0-1.54.46c7 23.31 14 47 20.72 69.89 11 37.25 22.4 75.77 33.86 113.67a.87.87 0 0 0 .18.31 23.89 23.89 0 0 0 6.83 5 5 5 0 0 1 .36.45 3.87 3.87 0 0 0 1.4 1.31 3.19 3.19 0 0 1 1.35 2.25 4.42 4.42 0 0 1-1.28 3.27c-1.5 1.66-3.77 4.18-1.87 6.85a13.8 13.8 0 0 0 2.59 2.45 12.14 12.14 0 0 1 2.3 2.16 2.87 2.87 0 0 1 .43 2.54c-.12.69-.25 1.39-.38 2.06-.56 2.93-1.14 5.95-.46 9.18a80.38 80.38 0 0 0 3 10.74c.38 1.13.77 2.29 1.13 3.44 1.16 3.81 2.26 7.73 3.32 11.51s2.17 7.71 3.33 11.54c.36 1.26.76 2.48 1.14 3.66.67 2 1.29 4 1.79 6.12a.8.8 0 0 0 1 .6Z" class="colorffffff svgShape"/><path fill="#ffffff" d="M1200.11 548a.78.78 0 0 0 .52-.51l9.17-27.07a.8.8 0 0 0-.52-1 .81.81 0 0 0-1 .52l-9 26.38-20-4.21a.83.83 0 0 0-.77.25l-11.16 12.45-43.35-18.13a.8.8 0 0 0-1 .52.81.81 0 0 0 .52 1l43.89 18.23a.78.78 0 0 0 .84-.23l11.21-12.49 20.24 4.29a.64.64 0 0 0 .41 0ZM1191.7 567.1a3.57 3.57 0 1 0 2-4.63 3.57 3.57 0 0 0-2 4.63ZM1215 642.93a3.57 3.57 0 1 0 2-4.63 3.58 3.58 0 0 0-2 4.63ZM1236.93 715.05a3.58 3.58 0 1 0 2-4.63 3.58 3.58 0 0 0-2 4.63Z" class="colorffffff svgShape"/><path fill="#ffc267" d="m1124.66 526.28-2.67 9.94 4.71-1.58-2.04-8.36z" class="colorff7867 svgShape"/><path fill="#464646" d="m1203.23 842.49-6.13-26.94-75.37-279.34-32.85 7.2c-36.57 7-72.82 29.2-94.52 59.68l-5.8 8.25-13.37 19.11-68.33 97.34-27.1 18.15-21.93 14.72-28.56 19.14v72.29l121.54-64.43c8.19-4.36 20-15 25.63-22.41l5.18-5.67 14.06-15.34 71.08-77.51 28 257.17 61-10.35a58.81 58.81 0 0 0 47.47-71.06ZM1594.28 537.72l-34.39 17.58-19.33 9.9-61.56 31.46q-34.11-16.56-68.3-33c-8.06-3.93-16.19-7.83-24.25-11.73l-.79-.36c-19.33-9.38-37.88-20.26-58.3-27.07-29.82-10-64.07-14.52-95.2-8.59l-21.54 4.3 75.81 257.56 15.57 49.66a56.44 56.44 0 0 0 66.17 38.19l61.87-13.82-92.95-230.62 117.07 50.56a69.07 69.07 0 0 0 17.7 3.22 96.57 96.57 0 0 0 31.92-3.44 58.49 58.49 0 0 0 13.89-6l76.57-55.19Z" class="color464646 svgShape"/><path fill="#7739c7" d="M1260.05 932a1.74 1.74 0 0 1-1.75-1.64l-4.24-73.6a1.75 1.75 0 0 1 .42-1.24l22.52-26a1.75 1.75 0 1 1 2.64 2.29l-22.05 25.46 4.2 72.88a1.74 1.74 0 0 1-1.64 1.85Z" class="color3944c7 svgShape"/><path fill="#fff0d9" d="M1731.71 873.82c-324.45-66.51-561.19 262.79-885.64 196.28Q809.52 905.18 773 740.26c324.45 66.51 561.19-262.79 885.64-196.28q36.51 164.93 73.07 329.84Z" class="colorffe8d9 svgShape"/><path fill="#ffe9c8" d="M1665.39 575.77a16.52 16.52 0 0 1 13.61 10.74l2.8 7.62-11.24 2.43Z" class="colorffcec8 svgShape"/><path fill="#ffe9c8" d="m1683.51 593.13-32 7.81a4.7 4.7 0 0 0-3.46 5.66 4.68 4.68 0 0 0 5 3.59l32.17-2.63a5.19 5.19 0 0 0 4.73-5.68l-.41-4.14a5.19 5.19 0 0 0-5.93-4.61Z" class="colorffcec8 svgShape"/><path fill="#ffe9c8" d="m1685.93 607.05-35.46 2.47a4.69 4.69 0 0 0-4.4 5 5.54 5.54 0 0 0 4.25 4.41l34.67 2.65a5.19 5.19 0 0 0 5.65-4.77l.31-4.15a5.17 5.17 0 0 0-5-5.57Z" class="colorffcec8 svgShape"/><path fill="#ffe9c8" d="m1685.63 619.11-30.79.41c-2.24 0-4.11 2.12-4.17 4.7 0 0 .2 3.66 3.34 4.64l29.73 4.64c2.47.44 4.83-1.55 5.24-4.42l.58-4.12c.41-2.93-1.38-5.6-3.93-5.85Z" class="colorffcec8 svgShape"/><path fill="#ffe9c8" d="m1686.3 632.58-22.46-2.92a3.36 3.36 0 0 0-3.52 3s-.24 2.68 2 3.72l21.15 6.48a3.5 3.5 0 0 0 4.27-2.67l.85-2.93a3.61 3.61 0 0 0-2.24-4.67Z" class="colorffcec8 svgShape"/><path fill="#ffd391" d="M1685.26 633.71h-.09L1663 631a.73.73 0 0 1-.62-.79.71.71 0 0 1 .79-.62l22.19 2.73a.71.71 0 0 1-.09 1.41ZM1687 621.25l-31-1.22a.71.71 0 0 1 0-1.42l31 1.23a.7.7 0 0 1 .68.73.71.71 0 0 1-.68.68ZM1654.44 610a.71.71 0 0 1-.71-.66.72.72 0 0 1 .66-.75l31.49-2.19a.69.69 0 0 1 .75.66.71.71 0 0 1-.66.75l-31.49 2.19ZM1671.47 596.69a.7.7 0 0 1-.17-1.39l9-2.2a.69.69 0 0 1 .85.52.7.7 0 0 1-.52.85l-9 2.2a.44.44 0 0 1-.16.02Z" class="colorff9c91 svgShape"/><path fill="#ffe9c8" d="M781.72 778.15a16.54 16.54 0 0 0-8.18 15.33l.51 8.1 11.27-2.3Z" class="colorffcec8 svgShape"/><path fill="#ffe9c8" d="m772.12 801.34 32.49-5.75a4.7 4.7 0 0 1 5.44 3.78 4.7 4.7 0 0 1-3.09 5.29l-30.5 10.53a5.18 5.18 0 0 1-6.62-3.29l-1.29-4a5.18 5.18 0 0 1 3.57-6.6Z" class="colorffcec8 svgShape"/><path fill="#ffe9c8" d="M775.51 815.05 809 803a4.71 4.71 0 0 1 6 2.77 5.54 5.54 0 0 1-2.12 5.75l-30.68 16.42a5.2 5.2 0 0 1-7.09-2.09l-2-3.67a5.19 5.19 0 0 1 2.36-7.13Z" class="colorffcec8 svgShape"/><path fill="#ffe9c8" d="M780.63 826 809 814c2.06-.89 4.61.28 5.7 2.62 0 0 1.29 3.43-1.19 5.59l-25.34 16.22c-2.09 1.39-5 .52-6.58-1.94l-2.19-3.54c-1.56-2.52-1-5.68 1.24-6.93Z" class="colorffcec8 svgShape"/><path fill="#ffe9c8" d="m785.45 838.57 19.38-11.71a3.35 3.35 0 0 1 4.42 1.32s1.3 2.36-.28 4.19l-16.75 14.45a3.52 3.52 0 0 1-5-.73l-2-2.34a3.61 3.61 0 0 1 .18-5.18Z" class="colorffcec8 svgShape"/><path fill="#ffd391" d="M786.57 839.25a.7.7 0 0 1-.36-1.31l19.21-11.43a.7.7 0 0 1 1 .24.71.71 0 0 1-.24 1l-19.21 11.43a.7.7 0 0 1-.4.07ZM780 828.53a.71.71 0 0 1-.31-1.34l27.9-13.6a.69.69 0 0 1 .94.32.7.7 0 0 1-.32.94l-27.9 13.6a.68.68 0 0 1-.31.08ZM775.51 815.76a.71.71 0 0 1-.24-1.37L805 803.72a.71.71 0 0 1 .48 1.33l-29.71 10.67a.67.67 0 0 1-.26.04ZM775.14 801.43A.71.71 0 0 1 775 800l9.16-1.62a.71.71 0 0 1 .82.57.71.71 0 0 1-.57.82l-9.16 1.62Z" class="colorff9c91 svgShape"/><path fill="#464646" d="M460.91 1112.41s46.87 50.75 111.48 37.09l27.34-89.5ZM433.13 1182.2l5.17-9.75-6.08-6.69s-3.78 12.57.91 16.44ZM672.53 1485a58.36 58.36 0 0 0-12.92-.49c-6.08.6-2 11.45-2 11.45l12.45-4.75Z" class="color464646 svgShape"/><path fill="#ffe9c8" d="M628.39 1488.05c-5.16-52.16-33.91-183.29 13.37-256.48 0 0-11.93-78.9 10.92-153.35l74.15 100.7-63.2 317.77c-18.74 13.4-25.74 9.93-35.24-8.64ZM446.8 1141.7c27 4.93 66.08 26 93.69 52.41 0 0-1.38-90.63 9.13-158.92 0 0 50.17-20.91 95.73 58l-40.16 148.63a44 44 0 0 1-33.36 32 43.9 43.9 0 0 1-35.6-7.85c-24.36-18.35-68.24-52.62-108.63-101.53 14.57-16.77 5.67-5.07 19.2-22.74Z" class="colorffcec8 svgShape"/><path fill="#8526fe" d="M460.91 1112.41c110.24-17.58 141.91 21 188.76 84.38s109.92 74.92 109.92 74.92c5-18.74 14.17-116.08 15-125.49 8.83-93-6.6-180.75-23.07-242.79-2.7-10.08-5.39-19.49-8-28.12-11.87-38.81-22.29-62.2-22.29-62.2H591.1c-26.74 77.47-130.19 299.3-130.19 299.3Z" class="color545ed7 svgShape"/><path fill="#464646" d="M672.54 1560s-4.37-26.37-19.81-32.46l31-2.54 33 5.84 20.28 5.57v20.33a3.26 3.26 0 0 1-3.25 3.26Z" class="color464646 svgShape"/><path fill="#464646" d="M647.84 1560h-8.27l-5.07-30.94s13.57-6.84 21.24-1.77Z" class="color464646 svgShape"/><path fill="#8526fe" d="m628.39 1488.05 6.12 41a34.16 34.16 0 0 1 4.59-1.1l1.92-.3a45.44 45.44 0 0 1 33.79 8.76H737s.23-17.74-11.16-20.54c-8.27-2-25.2-.85-39.2-12-.52-.43-1-.82-1.53-1.27a50 50 0 0 1-12.58-17.6l-6 4.66a31.38 31.38 0 0 1-21.36 6.7 14.35 14.35 0 0 1-6.48-1.75l-2.47-1.6-1.89-1.17Z" class="color545ed7 svgShape"/><path fill="#8526fe" d="M683.61 1489.09c2.91-6.49 8.48-10.1 12.68-8.22 2.1.94 3.46 3.09 3.83 6a17 17 0 0 1-1.54 8.89c-2.82 6.28-11.57 8.23-11.94 8.31l-.86.18-.43-.76a22.29 22.29 0 0 1-2.68-9.73 11.49 11.49 0 0 1 .94-4.67Zm12.79 5.74a14.54 14.54 0 0 0 1.36-7.62c-.26-2.1-1.13-3.58-2.45-4.17-2.88-1.29-7.24 1.93-9.53 7-1.85 4.13.28 9.46 1.23 11.47 2.14-.59 7.54-2.51 9.39-6.68Z" class="color545ed7 svgShape"/><path fill="#8526fe" d="M686.26 1502.89a1.19 1.19 0 0 0 1.19 1.19h23.17a1.19 1.19 0 0 0 0-2.38h-23.17a1.19 1.19 0 0 0-1.19 1.19Z" class="color545ed7 svgShape"/><path fill="#ffffff" d="M676.86 1511.36a.9.9 0 0 0 .71.33 1 1 0 0 0 .66-.23l8.36-7.55c-.52-.43-1-.82-1.53-1.27l-8.14 7.35a1 1 0 0 0-.06 1.37ZM671.16 1505.35a1.07 1.07 0 0 1-.78-.35 1 1 0 0 1 .08-1.49l8.68-7.83a1.06 1.06 0 0 1 1.49.07 1.07 1.07 0 0 1-.07 1.5l-8.69 7.83a1.05 1.05 0 0 1-.71.27ZM666.18 1498.53a1.05 1.05 0 0 1-.71-1.84l8.69-7.82a1.05 1.05 0 1 1 1.41 1.56l-8.68 7.83a1.07 1.07 0 0 1-.71.27ZM634.15 1492.48l5 35.48 1.92-.3-4.87-34.66-1.89-1.17a.89.89 0 0 0-.16.65Z" class="colorffffff svgShape"/><path fill="#464646" d="M370.05 1141.54s24.53 10.62 38 .94l-14.64 27.4-22.77 24.54-15.68 14-17.08-11a3.26 3.26 0 0 1-1-4.5Z" class="color464646 svgShape"/><path fill="#464646" d="m383.44 1120.79 4.48-7 28.74 12.5s-1.6 15.11-10 18.81Z" class="color464646 svgShape"/><path fill="#8526fe" d="m454.48 1143.45-37.82-17.11a32.72 32.72 0 0 1-1.56 4.46l-.79 1.77a45.46 45.46 0 0 1-25.67 23.66L355 1208.45s14.79 9.81 23.31 1.75c6.18-5.85 14.37-20.71 31.34-26.43.64-.21 1.23-.41 1.9-.6a50.22 50.22 0 0 1 21.62-1l-.65-7.58a31.32 31.32 0 0 1 5.94-21.58 14.12 14.12 0 0 1 5-4.49l2.68-1.22 2-.95Z" class="color545ed7 svgShape"/><path fill="#8526fe" d="M423.67 1189.29c3.88 6 3.9 12.61.05 15.11-1.94 1.26-4.48 1.24-7.16 0a17.13 17.13 0 0 1-6.64-6.13c-3.74-5.76-.64-14.17-.5-14.53l.3-.82h.88a22.27 22.27 0 0 1 9.63 3 11.4 11.4 0 0 1 3.44 3.37Zm-11.75 7.64a14.6 14.6 0 0 0 5.67 5.28c1.91.91 3.62 1 4.83.2 2.64-1.72 2.3-7.13-.74-11.82-2.47-3.8-8.11-4.89-10.31-5.18-.63 2.13-1.92 7.73.55 11.52Z" class="color545ed7 svgShape"/><path fill="#8526fe" d="M410.65 1184a1.2 1.2 0 0 0-1.65.36l-12.56 19.47a1.19 1.19 0 1 0 2 1.29l12.56-19.43a1.19 1.19 0 0 0-.35-1.69Z" class="color545ed7 svgShape"/><path fill="#ffffff" d="M408.62 1171.55a.91.91 0 0 0-.66.43 1 1 0 0 0-.16.67l1.81 11.12c.64-.21 1.23-.41 1.9-.6l-1.78-10.82a1 1 0 0 0-1.11-.8ZM416.76 1170a1 1 0 0 1 .71-.48 1.06 1.06 0 0 1 1.22.88l1.87 11.54a1.05 1.05 0 0 1-2.08.34l-1.88-11.54a1 1 0 0 1 .16-.74ZM425.19 1169.53a1 1 0 0 1 .71-.47 1.06 1.06 0 0 1 1.22.87l1.87 11.54a1.06 1.06 0 0 1-2.09.34l-1.9-11.54a1 1 0 0 1 .19-.74ZM447.63 1145.89l-32.5-15.07-.79 1.77 31.77 14.76 2-.95a.92.92 0 0 0-.48-.51Z" class="colorffffff svgShape"/><path fill="#ffdca8" d="M540.49 1194.11v23.67l-6.74-29.91 6.74 6.24z" class="colorffb1a8 svgShape"/><path fill="#8c54d3" d="M337.55 593s-4.66-5.5 1.06-22.45c4.13-14.72 11.32-21.23 25.59-23.09l4.36 35.67s-5.2 21.09-31.01 9.87Z" class="color545ed3 svgShape"/><path fill="#ffe9c8" d="m364.77 561.86-21.78-15L328.4 530l-2.09-12.23a3.88 3.88 0 0 0-3 4.16l.59 6.08-11.9-20.45a4.2 4.2 0 0 0-1.72 5.45l6 12.63-19.66-14.46a4.72 4.72 0 0 0 .44 5.6l13.43 15.37-2.49.58a3.67 3.67 0 0 0-2.09 1.37l-3.63 5.15 6.1 2.88 3.87-4.54 6.82 4.74-1.15 7.33-11.11 5-7.78-3c-2.78-1.06-6.79 3.26-6.79 3.26l17 11.35a14.31 14.31 0 0 0 3.07 1.56l22.18.48s17.79 8.84 17.24 9.63c-.26.29 13.04-16.08 13.04-16.08Z" class="colorffcec8 svgShape"/><path fill="#ffce85" d="M310.22 532.83a.55.55 0 0 1-.2-.4.59.59 0 0 1 .54-.64l6.43-.55a.6.6 0 0 1 .65.54.61.61 0 0 1-.54.64l-6.44.55a.57.57 0 0 1-.44-.14ZM316.51 526.81a.59.59 0 0 1 .69-1l6.79 4a.57.57 0 0 1 .21.81.59.59 0 0 1-.81.21l-6.8-4Z" class="colorff9185 svgShape"/><path fill="#ffc267" d="m660.82 644.58 76.39 190s-24.6-25.13-75.41 1.76-72.8-12.55-72.8-12.55l19.59-63.07-1-106 26-10Z" class="colorff7867 svgShape"/><path fill="#ffc267" d="m632.9 644.2-4.98 25.62-19.35-3.57-1.03-11.54-4.93-22.02 30.29 11.51zM655.96 621.74 632.9 644.2l17.05 23.31 17.27-9.42-3.78-13.97-7.48-22.38z" class="colorff7867 svgShape"/><path fill="#8c54d3" d="M744.6 325.2s-30.05-23.21-49.91-4.13l31.49 22.24s16.58 5.57 18.42-18.11Z" class="color545ed3 svgShape"/><path fill="#ffe9c8" d="m729.74 321.64-.98 17.47-20.25-3.36 1.55-17.52 19.68 3.41zM699 278.53c2-1 4.54 0 5.9 2.35l7.24 9.47 7-33.61a2 2 0 0 1 2.86-1.62 3.24 3.24 0 0 1 1.53 3.13l-2.09 23.93 9.94-25.81a1.89 1.89 0 0 1 2.92-1 3.25 3.25 0 0 1 1.14 3.61l-.07.23c.05-.06-8.85 25.67-8.85 25.67l10.47-21.68a1.63 1.63 0 0 1 2.18-.87 2.67 2.67 0 0 1 1.29 3.21l-7.89 23.61L743.82 274c.69-.88 1.33-1.15 2.24-.39a2.32 2.32 0 0 1 .49.56 3.13 3.13 0 0 1 .09 2.86l-16.9 44.59-19.68-3.41s-1.32-4.68-2.67-12.67-8.39-27.01-8.39-27.01Z" class="colorffcec8 svgShape"/><path fill="#464646" d="M666.47 567.77c1.84 29.62-15.44 30.74-15.44 30.74l4.97 23.23c14.48 74.91 75.18 230 88.63 264l32.2-45.85c-25.47-55.41-53.23-131-53.23-131s6.81-18.05 8.64-36.91-22.89-27-22.89-27L744.6 325.2a24.2 24.2 0 0 1-1.27 1.86c-3.94 5.21-11.51 6-16.89 2.24-20.29-14-31.75-8.23-31.75-8.23l-44.77 213.09 7.4 25.59c1.68 5.01 8.82 2.75 9.15 8.02ZM369.46 548.38s-17.53-8.78-19.14 21.52c0 0 .32 9.37-12.77 23.11l220 126.87.1.14 18.82-70.41Z" class="color464646 svgShape"/><path fill="#464646" d="m602.61 632.69-41.93 11.75-.26-.09-7.42 72.51c2.39 2.53 40.59 43.2 39.58 61.34 0 0-23.28 29.12-77.64 73.6l43.13 18.7c.25-.17.48-.35.74-.51 0 0 54.2-29.65 58.93-91s-.36-115.76-15.13-146.3Z" class="color464646 svgShape"/><path fill="#ffc267" d="M665.56 562.44s33.9 23.1 54.47 23.5c0 0 0 .61-.09 1.68a46.85 46.85 0 0 1-34.6 41.58l-13.91 3.8a14 14 0 0 1-17.19-10l-7.53-29.6Z" class="colorff7867 svgShape"/><path fill="#ffe9c8" d="M655.82 534.63s28.38 52-6.9 67.25l6.27 23.93-20.33 20-25-9.87-20.39-82.14s23.14-58.04 66.35-19.17Z" class="colorffcec8 svgShape"/><path fill="#ffc267" d="m592.24 564 19.51 71.49A53.19 53.19 0 0 1 573.83 648l-88.89-5.86s2-6.42 12.12-11a13.17 13.17 0 0 0 6.63-6.32c1.68-3.59.5-7.79 5.25-9.2a23.17 23.17 0 0 1 4.57-.61.35.35 0 0 0 .28-.1.36.36 0 0 0 0-.27 5 5 0 0 0-1.73-2.9c-.54-.51-1.54-.95-1.54-1.81 0-1.54 3.41-2.63 4.57-2.92 2.23-.55 4.77-.26 6.73-1.64 3.59-2.52 1.73-7.83-.71-10.38-1.5-1.57-3.28-2.88-4.55-4.64-2.34-3.22-2.59-7.65-1.33-11.43a16.46 16.46 0 0 1 7-8.76c3.83-2.35 8.41-3 12.77-4.11 19.09-4.88 29.84-22 39.47-38.12 5.53-9.23 14.66-16.76 24-22 17.12-9.62 39.28-2.62 50 13.8a90.45 90.45 0 0 1 8.52 16.8s-11.14 11.2-32.93 2.36-34.09 16.72-31.89 25.12Z" class="colorff7867 svgShape"/><path fill="#ffdca8" d="M648.89 601.89a34.33 34.33 0 0 1-27.43.32s8.46 13 29.72 8.66Z" class="colorffb1a8 svgShape"/><path fill="#ffe9c8" d="M600.45 591.5s-14.69-1.72-18-14.7a10.76 10.76 0 0 1 4.48-11.86 6.49 6.49 0 0 1 5.38-.89Z" class="colorffcec8 svgShape"/><path fill="#ffffff" d="M670.65 829.62a1 1 0 0 1-1-.87c-.14-.88-3-17.27-5.8-33.11-2.91-16.59-5.66-32.25-5.8-33.15-.24-1.06-4.49-7-8.46-12.06a1 1 0 0 1 .26-1.51l8.69-5.65-8.72-7.27a1 1 0 0 1-.37-.88 1 1 0 0 1 .5-.81l7.59-4.54-24.26-80.75-2.28 16.47a1 1 0 0 1-.47.74 1.07 1.07 0 0 1-.87.12l-22.08-6.91a1 1 0 1 1 .61-2l20.9 6.56 2.78-19.94a1 1 0 0 1 2-.15l25.9 86.09a1 1 0 0 1-.46 1.19l-7 4.21 8.64 7.19a1 1 0 0 1 .38.86 1.06 1.06 0 0 1-.47.81L651.9 750c2.52 3.27 7.91 10.42 8.18 12.13.14.87 3 17.26 5.79 33.11 2.91 16.58 5.66 32.24 5.8 33.14a1 1 0 0 1-.86 1.19Z" class="colorffffff svgShape"/><path fill="#ffffff" d="M647.69 661.88a1 1 0 0 1-.74-.36l-14.18-16.14a1 1 0 1 1 1.56-1.37l13.46 15.31 16.06-15.74a1 1 0 1 1 1.45 1.49l-16.84 16.51a1 1 0 0 1-.77.3Z" class="colorffffff svgShape"/><path fill="#fff0d9" d="M757 302.06C570.08 336 398.64 440.9 283.28 591.83L119.05 486.3c150.69-197.15 374.64-334.14 618.79-378.5q9.57 97.13 19.16 194.26Z" class="colorffe8d9 svgShape"/><path fill="#464646" d="M2696.47 1348.66s-10 13.17-38.46 11.06l-7.38-54.79s36.88 3.16 45.84 43.73ZM2317.86 722.28s-9.82-34.7 17.45-66.31l24.5 55.32s-14.35 21.18-41.95 10.99Z" class="color464646 svgShape"/><path fill="#ffe9c8" d="m2427.79 1308.19-70.35 214.33-37.36-1 22.73-232.06s61.77-36.9 84.98 18.73Z" class="colorffcec8 svgShape"/><path fill="#8526fe" d="m2358.15 1551.76-.05-.23-.53-2 1.22-28h-38.37l-14.42 19.75.2 18.76h45.72a6.55 6.55 0 0 0 6.23-8.28Z" class="color545ed7 svgShape"/><path fill="#8526fe" d="M2340.76 1540.8v19.2h-37.52a4.41 4.41 0 0 1-4.2-4.58v-4a9.85 9.85 0 0 1 .18-1.89 10.27 10.27 0 0 1 6.93-8.36 8.68 8.68 0 0 1 2.64-.42Z" class="color545ed7 svgShape"/><path fill="#ffffff" d="M2358.1 1551.53H2299v-.06a9.85 9.85 0 0 1 .18-1.89h58.36ZM2339.08 1541.84h-19.18a1 1 0 0 1 0-2.06h19.18a1 1 0 1 1 0 2.06ZM2338.77 1534.68h-10.86a1 1 0 1 1 0-2.06h10.86a1 1 0 0 1 0 2.06Z" class="colorffffff svgShape"/><path fill="#8526fe" d="M2325.37 1509.54h29.06a5.48 5.48 0 0 1 5.39 6.46l-1 5.57h-38.5l-.38-6.22a5.47 5.47 0 0 1 5.43-5.81ZM2686.16 1511.59c1.61-5.73 5.65-9.25 9.2-8 1.77.62 3.09 2.32 3.71 4.78a15.16 15.16 0 0 1-.26 7.65c-1.56 5.54-8.31 7.91-8.6 8l-.66.22-.42-.61a19.8 19.8 0 0 1-3.2-8 10.29 10.29 0 0 1 .23-4.04Zm10.81 3.79a13 13 0 0 0 .25-6.56c-.44-1.75-1.29-2.93-2.4-3.32-2.43-.85-5.56 2.23-6.82 6.73-1 3.65 1.26 8 2.23 9.6 1.63-.71 5.77-2.83 6.77-6.45Z" class="color545ed7 svgShape"/><path fill="#8526fe" d="M2689.78 1523a1 1 0 0 0 1.07.91l18.45-1.92a1 1 0 0 0 .82-1.1 1 1 0 0 0-1.08-.91l-18.45 1.91a1 1 0 0 0-.81 1.11Z" class="color545ed7 svgShape"/><path fill="#464646" d="M2680.61 1510.06a23.45 23.45 0 0 0-3.29-1.61l.46 4.78a8.08 8.08 0 0 0 2.83-3.17Z" class="color464646 svgShape"/><path fill="#ffe9c8" d="M2591.18 1291.29c7.77 43.93 42.51 205.29 47.3 230.68 9 15 27.11 5.22 39.41-7.54v-212.94Z" class="colorffcec8 svgShape"/><path fill="#8526fe" d="m2638.48 1522 2.11 32.89c.73 2.68 5.7 4.57 8.31 4.59l81.86.59c.26 0-2.15-8-2.38-8.47-4.45-9.61-16.17-11.14-24.49-16.09-10.09-6-16.88-15.52-23.28-25.42-4.66 5.33-9.58 10.63-15.79 13.79a22.89 22.89 0 0 1-12.59 2.51 38.07 38.07 0 0 1-13.75-4.39Z" class="color545ed7 svgShape"/><path fill="#ffffff" d="M2676.36 1529.92a1.06 1.06 0 0 1-.57-1.94 25.76 25.76 0 0 0 8.92-10.28 1.07 1.07 0 0 1 1.38-.55 1 1 0 0 1 .56 1.37 27.29 27.29 0 0 1-9.72 11.23 1.06 1.06 0 0 1-.57.17ZM2683.08 1537.16a1 1 0 0 1-.57-1.93 25.83 25.83 0 0 0 8.92-10.28 1.05 1.05 0 0 1 1.94.81 27.41 27.41 0 0 1-9.72 11.23 1 1 0 0 1-.57.17ZM2729.4 1555.84l-89.37-2a1.07 1.07 0 0 1-1-1.08 1.05 1.05 0 0 1 1.08-1l89.37 2a1.06 1.06 0 0 1 0 2.11Z" class="colorffffff svgShape"/><path fill="#d8a353" d="M2682.24 545.82s19.48 2.89 32 11.86a15.65 15.65 0 0 0 7.28 2.83c3.57.43 8.61 2 10.7 7.12 3.4 8.39 8.1 7.78 10.3 6.39s6.82 1.62 4.11 8.77 9.42-1.21 11.43 5-2.66 49 1.5 55.61c0 0 5.09 13.12 16 21.08 0 0 4.09 2.33 3.08 8.54a7.75 7.75 0 0 0 3.94 7.75c3 1.76 5.93 4.71 5.57 9.41h-60.75l-2.27-16.6-4.22 16.6h-126.34l18.83-118.62 5-44h28.27c6.77 7.33 17.76 14.69 35.57 18.26Z" class="colorff9d5a svgShape"/><path fill="#ffe9c8" d="m2368.24 653.21-30.3-51.9-18.17 18.18 22.43 82.85 26.04-49.13z" class="colorffcec8 svgShape"/><path fill="#8526fe" d="M2345.56 680.5a53.08 53.08 0 0 1 1-16.06c6.46-27.88 29.9-27.27 29.9-27.27l14.23 27.83s5.47 10.39 5.47 10.37l14.33 78.5c-1 .7-1.93 1.37-2.93 2a54.5 54.5 0 0 1-67.25-6.87 177 177 0 0 1-22.45-26.68c27.25-8.13 28.47-31.84 27.7-41.82Z" class="color545ed7 svgShape"/><path fill="#464646" d="M2455.83 602.63c24.5-29.24 56.5-36.75 56.5-36.75l-9.08 50.58-20.55 65.59-59 61.81a54.54 54.54 0 0 1-19.87 13.93l-14-82.46c.69-1.02 41.85-43.88 66-72.7Z" class="color464646 svgShape"/><path fill="#8526fe" d="M2328.2 1318.63s37.14-12.65 135.14 37.93a63.05 63.05 0 0 0 7.49 2.62 119.79 119.79 0 0 0 23.64 4.56c2.12.22 4.37.38 6.67.47a137.38 137.38 0 0 0 32.28-2.34 144.12 144.12 0 0 0 32.53-10.56 161.11 161.11 0 0 0 25.29-14.57c3.44-2.4 6.92-5 10.4-7.84 0 0 27.62-19.12 59.52-7.49 11.57 4.2 23.71 12.49 35.31 27.25l-1.45-71.1v-1.42l-.67-32-1.14-54.69-3-148.22s-108.27-35.31-134.35-148.33c0 0-18.71-66.63-1-137l52.31-169.9s-36.61 38.19-51.37 64.8l-5.53-59-28.45 102.5-47.67 120.12s-7.65 95.88-89.05 196.58l-13.34 72-10.18 55.16-5.79 31.17-12.67 68.5Z" class="color545ed7 svgShape"/><path fill="#ffe9c8" d="m2617.05 568.64-55.72-4.74-11.06 27.93 5.53 59a428.31 428.31 0 0 1 51.37-64.8s5.53-11.59 9.88-17.39Z" class="colorffcec8 svgShape"/><path fill="#464646" d="M2682.74 1055.79c40.21 0 65.28-43.54 45.13-78.34-28.83-49.79-62.79-105.91-73-130.66-36.32-87.93-25.29-152-25.29-152-12.12-49.53 24.24-117.49 24.24-117.49-16.34-6.32-37.21-8.7-37.21-8.7-28.06 40.31-61.84 187.3-61.84 187.3-44.86 164.78 44.42 252.1 127.97 299.89ZM2561.33 563.9s-30.42-2.76-49 2l-9.08 50.58s-34.78 26.08-26.48 51.76l7.59 18.63a25.57 25.57 0 0 1-2.39 23.89c-17.77 26.53-62.27 108.26-96.87 300.2 0 0 90.62-108.53 123.28-255 0-.02 36.29-151.82 52.95-192.06Z" class="color464646 svgShape"/><path fill="#ffe9c8" d="M2544.35 489.71s-12.54 54.54 20.15 60.4l-2 16.11 51.2 4.14 9.72-81.57-55.83-33.15Z" class="colorffcec8 svgShape"/><path fill="#d8a353" d="M2548 451c1.71-17.12 24-22.91 33.57-8.61l.42.64s19.23-10.76 38.34 2.7c9.38 6.6 15.18 17.15 16.64 28.53a103.55 103.55 0 0 1 .24 23.53 38.1 38.1 0 0 0 9.21 29.41l.28.32h-28l2.07-21.1-8.89-5.27s-35.05 2-45.77-31.09c0 0-3.81 22.64-22.19 21.46Z" class="colorff9d5a svgShape"/><path fill="#ffe9c8" d="M2604.59 512.32c-.19 7.46 1.74 14.11 9.21 14.3s17.65-6.16 17.84-13.63a13.53 13.53 0 1 0-27-.67Z" class="colorffcec8 svgShape"/><path fill="#ffdca8" d="M2564.5 550.11s19.54 2.58 39.92-19c0 0-8.33 23.68-40.88 26.48Z" class="colorffb1a8 svgShape"/><path fill="#763dbf" d="M2481.51 681.34a1.25 1.25 0 0 1-1.07-.6c-.37-.6-8.93-14.72-5.16-29.69.19-.73 4.81-18 23.76-32.95a1.26 1.26 0 0 1 1.56 2c-18.29 14.46-22.83 31.43-22.87 31.6-3.5 13.9 4.78 27.59 4.86 27.73a1.27 1.27 0 0 1-1.08 1.93ZM2404.86 697.54a1.27 1.27 0 0 1-1.16-.74l-10.7-23.71a1.27 1.27 0 1 1 2.31-1l10.69 23.67a1.28 1.28 0 0 1-.63 1.67 1.25 1.25 0 0 1-.51.11Z" class="color3d47bf svgShape"/><path fill="#fff0d9" d="M2242.96 570.53h305.97v200.08h-305.97z" transform="rotate(-171.46 2395.943 670.574)" class="colorffe8d9 svgShape"/><path fill="#ffdca8" d="M2677.9 1358.14s-16.2-30.82-59.67-36.75c0 0 29.24-13 59.67 9.09Z" class="colorffb1a8 svgShape"/><path fill="#d8a353" d="M2547.37 754.36s-13.9-41.29 1.32-63.42l35.36 7.51s8.83 55.12-36.68 55.91Z" class="colorff9d5a svgShape"/><path fill="#ffe9c8" d="m2555.74 711.55 16.52 6.04 5.82-21.84-17.66-3.74-4.68 19.54z" class="colorffcec8 svgShape"/><path fill="#464646" d="M2653.8 577.34s38.42 29.32 71.38 101a104 104 0 0 1 9.19 36.8l.06.88a55.19 55.19 0 0 1-49.67 58.5l-4.34.42a107.6 107.6 0 0 1-30.4-1.34l-102.65-19.29s29.5-9 19.49-36.88 9-38.46 9-38.46l80.61 23.18-28.91-44.45s7.27-51.39 26.24-80.36Z" class="color464646 svgShape"/><path fill="#1f1f1f" d="M2628.11 696a1.24 1.24 0 0 1-.37-.06l-49.39-15a1.27 1.27 0 1 1 .74-2.42l49.39 15a1.26 1.26 0 0 1-.37 2.47ZM2643.92 773.8a.86.86 0 0 1-.23 0l-85.75-15.8a1.27 1.27 0 0 1 .46-2.49l85.75 15.8a1.27 1.27 0 0 1-.23 2.51ZM2627.39 657.76a1.27 1.27 0 0 1-1.27-1.26 86.76 86.76 0 0 1 5.56-27.88 1.29 1.29 0 0 1 1.63-.74 1.26 1.26 0 0 1 .75 1.62 85.74 85.74 0 0 0-5.41 27 1.26 1.26 0 0 1-1.25 1.27Z" class="color1f1f1f svgShape"/><path fill="#ffe9c8" d="M2375.19 567.24a10.28 10.28 0 0 0-7.43-7.84l-4.87-1.29-.86 7.09Z" class="colorffcec8 svgShape"/><path fill="#ffe9c8" d="m2363.41 557-3 20.28a2.92 2.92 0 0 1-3.3 2.47 2.91 2.91 0 0 1-2.51-2.86l-.21-20.06a3.22 3.22 0 0 1 3.24-3.26h2.59a3.23 3.23 0 0 1 3.19 3.41Z" class="colorffcec8 svgShape"/><path fill="#ffe9c8" d="m2354.65 556.32.51 22.09a2.92 2.92 0 0 1-2.82 3 3.45 3.45 0 0 1-3-2.38l-3.62-21.3a3.22 3.22 0 0 1 2.63-3.77l2.55-.44a3.22 3.22 0 0 1 3.73 2.8Z" class="colorffcec8 svgShape"/><path fill="#ffe9c8" d="m2347.2 557.19 1.51 19.09a2.82 2.82 0 0 1-2.66 2.84 3.31 3.31 0 0 1-3.07-1.8l-4.57-18.14a3 3 0 0 1 2.44-3.49l2.51-.6a3 3 0 0 1 3.84 2.1Z" class="colorffcec8 svgShape"/><path fill="#ffe9c8" d="m2338.83 557.55 3.09 13.73a2.08 2.08 0 0 1-1.64 2.35 2.44 2.44 0 0 1-2.42-1l-5.22-12.72a2.18 2.18 0 0 1 1.41-2.8l1.76-.69a2.24 2.24 0 0 1 3 1.12Z" class="colorffcec8 svgShape"/><path fill="#ffd391" d="M2338.19 558.19a.49.49 0 0 0 0 .12l3 13.58a.44.44 0 0 0 .86-.19l-3-13.58a.44.44 0 0 0-.87.07ZM2345.81 556.42a.27.27 0 0 0 0 .09l2.53 19.12a.44.44 0 1 0 .87-.11l-2.53-19.13a.44.44 0 0 0-.87 0ZM2354.21 556.29l.45 19.63a.44.44 0 0 0 .45.43.4.4 0 0 0 .43-.45l-.45-19.61a.43.43 0 0 0-.45-.43.44.44 0 0 0-.43.43ZM2361.89 564.61a.45.45 0 0 0 .38.46.43.43 0 0 0 .49-.37l.85-5.72a.44.44 0 1 0-.87-.13l-.84 5.72a.06.06 0 0 0-.01.04Z" class="colorff9c91 svgShape"/><path fill="#ffe9c8" d="M2513.61 697.35a3.27 3.27 0 0 0-1.4 2.06.59.59 0 0 1 0 .28 2.79 2.79 0 0 0 2.1 2.8l34.22 9.63 20.19 13.06a34.12 34.12 0 0 0-1.83-7.68c-3.27-9.2-3.47-16.49-2.14-22.14l-2.54-2.38c.24-3.78-1-6.35-3.7-9l-9.31-9-.63 10.45-8.84-.59-17.73-6.59a2.25 2.25 0 0 0-1.87 4.09l11.57 5.61-16.25-1.09a2.66 2.66 0 0 0-2.85 1.95.86.86 0 0 0 0 .27 3 3 0 0 0 1.36 3 2.83 2.83 0 0 0-3.35 2.29 2.86 2.86 0 0 0 3 2.98Z" class="colorffcec8 svgShape"/><path fill="#ffd699" d="M2532.38 694.43h-.05l-18.4-1.91a.41.41 0 0 1-.37-.46.39.39 0 0 1 .46-.37l18.4 1.9a.42.42 0 0 1 .38.46.43.43 0 0 1-.42.38ZM2532.41 700.24l-18.8-2.46a.42.42 0 0 1-.36-.47.45.45 0 0 1 .47-.37l18.8 2.47a.41.41 0 0 1 .36.47.43.43 0 0 1-.47.36Z" class="colorff9999 svgShape"/></g></svg>